<?xml version="1.0" encoding="UTF-8" standalone="no"?>
<!DOCTYPE svg PUBLIC "-//W3C//DTD SVG 1.1//EN"
 "http://www.w3.org/Graphics/SVG/1.1/DTD/svg11.dtd">
<!-- Generated by graphviz version 12.0.0 (20240704.0754)
 -->
<!-- Title: graph_title Pages: 1 -->
<svg width="2547pt" height="459pt"
 viewBox="0.00 0.00 2547.25 459.00" xmlns="http://www.w3.org/2000/svg" xmlns:xlink="http://www.w3.org/1999/xlink">
<g id="graph0" class="graph" transform="scale(1 1) rotate(0) translate(4 455)">
<title>graph_title</title>
<polygon fill="white" stroke="none" points="-4,4 -4,-455 2543.25,-455 2543.25,4 -4,4"/>
<!-- ApplicationCable -->
<g id="node1" class="node">
<title>ApplicationCable</title>
<path fill="none" stroke="black" d="M200.62,-123C200.62,-123 287.88,-123 287.88,-123 293.88,-123 299.88,-129 299.88,-135 299.88,-135 299.88,-159.5 299.88,-159.5 299.88,-165.5 293.88,-171.5 287.88,-171.5 287.88,-171.5 200.62,-171.5 200.62,-171.5 194.62,-171.5 188.62,-165.5 188.62,-159.5 188.62,-159.5 188.62,-135 188.62,-135 188.62,-129 194.62,-123 200.62,-123"/>
<text text-anchor="middle" x="244.25" y="-154.2" font-family="Times,serif" font-size="14.00">ApplicationCable</text>
<polyline fill="none" stroke="black" points="188.62,-147 299.88,-147"/>
</g>
<!-- ApplicationCable::Channel -->
<g id="node2" class="node">
<title>ApplicationCable::Channel</title>
<path fill="none" stroke="black" d="M83.38,-323.75C83.38,-323.75 223.12,-323.75 223.12,-323.75 229.12,-323.75 235.12,-329.75 235.12,-335.75 235.12,-335.75 235.12,-360.25 235.12,-360.25 235.12,-366.25 229.12,-372.25 223.12,-372.25 223.12,-372.25 83.38,-372.25 83.38,-372.25 77.38,-372.25 71.38,-366.25 71.38,-360.25 71.38,-360.25 71.38,-335.75 71.38,-335.75 71.38,-329.75 77.38,-323.75 83.38,-323.75"/>
<text text-anchor="middle" x="153.25" y="-354.95" font-family="Times,serif" font-size="14.00">ApplicationCable::Channel</text>
<polyline fill="none" stroke="black" points="71.38,-347.75 235.12,-347.75"/>
</g>
<!-- ApplicationCable::Channel&#45;&gt;ApplicationCable -->
<g id="edge1" class="edge">
<title>ApplicationCable::Channel&#45;&gt;ApplicationCable</title>
<path fill="none" stroke="black" d="M164.05,-323.42C179.92,-288.76 209.66,-223.79 228.13,-183.46"/>
<polygon fill="black" stroke="black" points="228.1,-183.53 226.96,-176.41 233.09,-172.62 234.23,-179.74 228.1,-183.53"/>
</g>
<!-- ActionCable::Channel::Base -->
<g id="node19" class="node">
<title>ActionCable::Channel::Base</title>
<path fill="none" stroke="black" d="M12,-123C12,-123 158.5,-123 158.5,-123 164.5,-123 170.5,-129 170.5,-135 170.5,-135 170.5,-159.5 170.5,-159.5 170.5,-165.5 164.5,-171.5 158.5,-171.5 158.5,-171.5 12,-171.5 12,-171.5 6,-171.5 0,-165.5 0,-159.5 0,-159.5 0,-135 0,-135 0,-129 6,-123 12,-123"/>
<text text-anchor="middle" x="85.25" y="-154.2" font-family="Times,serif" font-size="14.00">ActionCable::Channel::Base</text>
<polyline fill="none" stroke="black" points="0,-147 170.5,-147"/>
</g>
<!-- ApplicationCable::Channel&#45;&gt;ActionCable::Channel::Base -->
<g id="edge3" class="edge">
<title>ApplicationCable::Channel&#45;&gt;ActionCable::Channel::Base</title>
<path fill="none" stroke="black" d="M145.18,-323.42C133.25,-288.53 110.81,-222.95 97.03,-182.68"/>
<polygon fill="none" stroke="black" points="100.35,-181.56 93.8,-173.23 93.72,-183.83 100.35,-181.56"/>
</g>
<!-- ApplicationCable::Connection -->
<g id="node3" class="node">
<title>ApplicationCable::Connection</title>
<path fill="none" stroke="black" d="M298.75,-323.75C298.75,-323.75 455.75,-323.75 455.75,-323.75 461.75,-323.75 467.75,-329.75 467.75,-335.75 467.75,-335.75 467.75,-360.25 467.75,-360.25 467.75,-366.25 461.75,-372.25 455.75,-372.25 455.75,-372.25 298.75,-372.25 298.75,-372.25 292.75,-372.25 286.75,-366.25 286.75,-360.25 286.75,-360.25 286.75,-335.75 286.75,-335.75 286.75,-329.75 292.75,-323.75 298.75,-323.75"/>
<text text-anchor="middle" x="377.25" y="-354.95" font-family="Times,serif" font-size="14.00">ApplicationCable::Connection</text>
<polyline fill="none" stroke="black" points="286.75,-347.75 467.75,-347.75"/>
</g>
<!-- ApplicationCable::Connection&#45;&gt;ApplicationCable -->
<g id="edge2" class="edge">
<title>ApplicationCable::Connection&#45;&gt;ApplicationCable</title>
<path fill="none" stroke="black" d="M361.47,-323.42C338.07,-288.46 294.05,-222.67 267.12,-182.43"/>
<polygon fill="black" stroke="black" points="267.18,-182.52 260.52,-179.76 260.51,-172.55 267.17,-175.31 267.18,-182.52"/>
</g>
<!-- ActionCable::Connection::Base -->
<g id="node20" class="node">
<title>ActionCable::Connection::Base</title>
<path fill="none" stroke="black" d="M330.38,-123C330.38,-123 494.12,-123 494.12,-123 500.12,-123 506.12,-129 506.12,-135 506.12,-135 506.12,-159.5 506.12,-159.5 506.12,-165.5 500.12,-171.5 494.12,-171.5 494.12,-171.5 330.38,-171.5 330.38,-171.5 324.38,-171.5 318.38,-165.5 318.38,-159.5 318.38,-159.5 318.38,-135 318.38,-135 318.38,-129 324.38,-123 330.38,-123"/>
<text text-anchor="middle" x="412.25" y="-154.2" font-family="Times,serif" font-size="14.00">ActionCable::Connection::Base</text>
<polyline fill="none" stroke="black" points="318.38,-147 506.12,-147"/>
</g>
<!-- ApplicationCable::Connection&#45;&gt;ActionCable::Connection::Base -->
<g id="edge4" class="edge">
<title>ApplicationCable::Connection&#45;&gt;ActionCable::Connection::Base</title>
<path fill="none" stroke="black" d="M381.4,-323.42C387.53,-288.61 399.05,-223.23 406.14,-182.94"/>
<polygon fill="none" stroke="black" points="409.55,-183.75 407.84,-173.29 402.66,-182.53 409.55,-183.75"/>
</g>
<!-- Api::V1::AuthController -->
<g id="node4" class="node">
<title>Api::V1::AuthController</title>
<path fill="none" stroke="black" d="M497.75,-295C497.75,-295 660.75,-295 660.75,-295 666.75,-295 672.75,-301 672.75,-307 672.75,-307 672.75,-389 672.75,-389 672.75,-395 666.75,-401 660.75,-401 660.75,-401 497.75,-401 497.75,-401 491.75,-401 485.75,-395 485.75,-389 485.75,-389 485.75,-307 485.75,-307 485.75,-301 491.75,-295 497.75,-295"/>
<text text-anchor="middle" x="579.25" y="-383.7" font-family="Times,serif" font-size="14.00">Api::V1::AuthController</text>
<polyline fill="none" stroke="black" points="485.75,-376.5 672.75,-376.5"/>
<polyline fill="none" stroke="black" points="485.75,-352.5 672.75,-352.5"/>
<text text-anchor="start" x="493.75" y="-335.2" font-family="Times,serif" font-size="14.00">I + login()</text>
<text text-anchor="start" x="493.75" y="-318.7" font-family="Times,serif" font-size="14.00">I &#45; login_params()</text>
<text text-anchor="start" x="493.75" y="-302.2" font-family="Times,serif" font-size="14.00">I &#45; handle_record_not_found(e)</text>
</g>
<!-- ApplicationController -->
<g id="node8" class="node">
<title>ApplicationController</title>
<path fill="none" stroke="black" d="M1110.75,-86C1110.75,-86 1249.75,-86 1249.75,-86 1255.75,-86 1261.75,-92 1261.75,-98 1261.75,-98 1261.75,-196.5 1261.75,-196.5 1261.75,-202.5 1255.75,-208.5 1249.75,-208.5 1249.75,-208.5 1110.75,-208.5 1110.75,-208.5 1104.75,-208.5 1098.75,-202.5 1098.75,-196.5 1098.75,-196.5 1098.75,-98 1098.75,-98 1098.75,-92 1104.75,-86 1110.75,-86"/>
<text text-anchor="middle" x="1180.25" y="-191.2" font-family="Times,serif" font-size="14.00">ApplicationController</text>
<polyline fill="none" stroke="black" points="1098.75,-184 1261.75,-184"/>
<polyline fill="none" stroke="black" points="1098.75,-160 1261.75,-160"/>
<text text-anchor="start" x="1106.75" y="-142.7" font-family="Times,serif" font-size="14.00">I + encode_token(payload)</text>
<text text-anchor="start" x="1106.75" y="-126.2" font-family="Times,serif" font-size="14.00">I + decoded_token()</text>
<text text-anchor="start" x="1106.75" y="-109.7" font-family="Times,serif" font-size="14.00">I + current_user()</text>
<text text-anchor="start" x="1106.75" y="-93.2" font-family="Times,serif" font-size="14.00">I + authorized()</text>
</g>
<!-- Api::V1::AuthController&#45;&gt;ApplicationController -->
<g id="edge5" class="edge">
<title>Api::V1::AuthController&#45;&gt;ApplicationController</title>
<path fill="none" stroke="black" d="M620.59,-294.76C637.77,-276.36 659.11,-257.23 682.25,-245 811.53,-176.67 982.59,-156.28 1086.85,-150.38"/>
<polygon fill="none" stroke="black" points="1086.98,-153.88 1096.78,-149.86 1086.61,-146.89 1086.98,-153.88"/>
</g>
<!-- Api::V1::ForumThreadCommentsController -->
<g id="node5" class="node">
<title>Api::V1::ForumThreadCommentsController</title>
<path fill="none" stroke="black" d="M703.12,-245.5C703.12,-245.5 937.38,-245.5 937.38,-245.5 943.38,-245.5 949.38,-251.5 949.38,-257.5 949.38,-257.5 949.38,-438.5 949.38,-438.5 949.38,-444.5 943.38,-450.5 937.38,-450.5 937.38,-450.5 703.12,-450.5 703.12,-450.5 697.12,-450.5 691.12,-444.5 691.12,-438.5 691.12,-438.5 691.12,-257.5 691.12,-257.5 691.12,-251.5 697.12,-245.5 703.12,-245.5"/>
<text text-anchor="middle" x="820.25" y="-433.2" font-family="Times,serif" font-size="14.00">Api::V1::ForumThreadCommentsController</text>
<polyline fill="none" stroke="black" points="691.12,-426 949.38,-426"/>
<polyline fill="none" stroke="black" points="691.12,-402 949.38,-402"/>
<text text-anchor="start" x="699.12" y="-384.7" font-family="Times,serif" font-size="14.00">I + index()</text>
<text text-anchor="start" x="699.12" y="-368.2" font-family="Times,serif" font-size="14.00">I + showCommentsForThread()</text>
<text text-anchor="start" x="699.12" y="-351.7" font-family="Times,serif" font-size="14.00">I + create()</text>
<text text-anchor="start" x="699.12" y="-335.2" font-family="Times,serif" font-size="14.00">I + update()</text>
<text text-anchor="start" x="699.12" y="-318.7" font-family="Times,serif" font-size="14.00">I + show()</text>
<text text-anchor="start" x="699.12" y="-302.2" font-family="Times,serif" font-size="14.00">I + destroy()</text>
<text text-anchor="start" x="699.12" y="-285.7" font-family="Times,serif" font-size="14.00">I &#45; forumThreadComment_params()</text>
<text text-anchor="start" x="699.12" y="-269.2" font-family="Times,serif" font-size="14.00">I &#45; set_forumThreadComment()</text>
<text text-anchor="start" x="699.12" y="-252.7" font-family="Times,serif" font-size="14.00">I &#45; get_commentsForCurrentThread()</text>
</g>
<!-- Api::V1::ForumThreadCommentsController&#45;&gt;ApplicationController -->
<g id="edge6" class="edge">
<title>Api::V1::ForumThreadCommentsController&#45;&gt;ApplicationController</title>
<path fill="none" stroke="black" d="M949.71,-250.05C952.56,-248.33 955.41,-246.64 958.25,-245 999.28,-221.3 1047.2,-199.72 1088,-182.99"/>
<polygon fill="none" stroke="black" points="1089.14,-186.3 1097.08,-179.3 1086.5,-179.82 1089.14,-186.3"/>
</g>
<!-- Api::V1::ForumThreadController -->
<g id="node6" class="node">
<title>Api::V1::ForumThreadController</title>
<path fill="none" stroke="black" d="M979.62,-245.5C979.62,-245.5 1174.88,-245.5 1174.88,-245.5 1180.88,-245.5 1186.88,-251.5 1186.88,-257.5 1186.88,-257.5 1186.88,-438.5 1186.88,-438.5 1186.88,-444.5 1180.88,-450.5 1174.88,-450.5 1174.88,-450.5 979.62,-450.5 979.62,-450.5 973.62,-450.5 967.62,-444.5 967.62,-438.5 967.62,-438.5 967.62,-257.5 967.62,-257.5 967.62,-251.5 973.62,-245.5 979.62,-245.5"/>
<text text-anchor="middle" x="1077.25" y="-433.2" font-family="Times,serif" font-size="14.00">Api::V1::ForumThreadController</text>
<polyline fill="none" stroke="black" points="967.62,-426 1186.88,-426"/>
<polyline fill="none" stroke="black" points="967.62,-402 1186.88,-402"/>
<text text-anchor="start" x="975.62" y="-384.7" font-family="Times,serif" font-size="14.00">I + index()</text>
<text text-anchor="start" x="975.62" y="-368.2" font-family="Times,serif" font-size="14.00">I + showForumThreadsByCategory()</text>
<text text-anchor="start" x="975.62" y="-351.7" font-family="Times,serif" font-size="14.00">I + create()</text>
<text text-anchor="start" x="975.62" y="-335.2" font-family="Times,serif" font-size="14.00">I + update()</text>
<text text-anchor="start" x="975.62" y="-318.7" font-family="Times,serif" font-size="14.00">I + show()</text>
<text text-anchor="start" x="975.62" y="-302.2" font-family="Times,serif" font-size="14.00">I + destroy()</text>
<text text-anchor="start" x="975.62" y="-285.7" font-family="Times,serif" font-size="14.00">I &#45; forumThread_params()</text>
<text text-anchor="start" x="975.62" y="-269.2" font-family="Times,serif" font-size="14.00">I &#45; set_forumThread()</text>
<text text-anchor="start" x="975.62" y="-252.7" font-family="Times,serif" font-size="14.00">I &#45; get_forumThreadsByCategory()</text>
</g>
<!-- Api::V1::ForumThreadController&#45;&gt;ApplicationController -->
<g id="edge7" class="edge">
<title>Api::V1::ForumThreadController&#45;&gt;ApplicationController</title>
<path fill="none" stroke="black" d="M1130.11,-245.01C1134.67,-236.2 1139.22,-227.41 1143.62,-218.94"/>
<polygon fill="none" stroke="black" points="1146.7,-220.6 1148.19,-210.11 1140.48,-217.38 1146.7,-220.6"/>
</g>
<!-- Api::V1::UsersController -->
<g id="node7" class="node">
<title>Api::V1::UsersController</title>
<path fill="none" stroke="black" d="M1217.25,-245.5C1217.25,-245.5 1347.25,-245.5 1347.25,-245.5 1353.25,-245.5 1359.25,-251.5 1359.25,-257.5 1359.25,-257.5 1359.25,-438.5 1359.25,-438.5 1359.25,-444.5 1353.25,-450.5 1347.25,-450.5 1347.25,-450.5 1217.25,-450.5 1217.25,-450.5 1211.25,-450.5 1205.25,-444.5 1205.25,-438.5 1205.25,-438.5 1205.25,-257.5 1205.25,-257.5 1205.25,-251.5 1211.25,-245.5 1217.25,-245.5"/>
<text text-anchor="middle" x="1282.25" y="-433.2" font-family="Times,serif" font-size="14.00">Api::V1::UsersController</text>
<polyline fill="none" stroke="black" points="1205.25,-426 1359.25,-426"/>
<polyline fill="none" stroke="black" points="1205.25,-402 1359.25,-402"/>
<text text-anchor="start" x="1213.25" y="-384.7" font-family="Times,serif" font-size="14.00">I + index()</text>
<text text-anchor="start" x="1213.25" y="-368.2" font-family="Times,serif" font-size="14.00">I + create()</text>
<text text-anchor="start" x="1213.25" y="-351.7" font-family="Times,serif" font-size="14.00">I + me()</text>
<text text-anchor="start" x="1213.25" y="-335.2" font-family="Times,serif" font-size="14.00">I + logout()</text>
<text text-anchor="start" x="1213.25" y="-318.7" font-family="Times,serif" font-size="14.00">I + show()</text>
<text text-anchor="start" x="1213.25" y="-302.2" font-family="Times,serif" font-size="14.00">I + destroy()</text>
<text text-anchor="start" x="1213.25" y="-285.7" font-family="Times,serif" font-size="14.00">I + update()</text>
<text text-anchor="start" x="1213.25" y="-269.2" font-family="Times,serif" font-size="14.00">I &#45; user_params()</text>
<text text-anchor="start" x="1213.25" y="-252.7" font-family="Times,serif" font-size="14.00">I &#45; set_user()</text>
</g>
<!-- Api::V1::UsersController&#45;&gt;ApplicationController -->
<g id="edge8" class="edge">
<title>Api::V1::UsersController&#45;&gt;ApplicationController</title>
<path fill="none" stroke="black" d="M1229.91,-245.01C1225.38,-236.2 1220.88,-227.41 1216.53,-218.94"/>
<polygon fill="none" stroke="black" points="1219.68,-217.41 1212,-210.11 1213.45,-220.61 1219.68,-217.41"/>
</g>
<!-- ActionController::Base -->
<g id="node21" class="node">
<title>ActionController::Base</title>
<path fill="none" stroke="black" d="M1121.25,-0.5C1121.25,-0.5 1239.25,-0.5 1239.25,-0.5 1245.25,-0.5 1251.25,-6.5 1251.25,-12.5 1251.25,-12.5 1251.25,-37 1251.25,-37 1251.25,-43 1245.25,-49 1239.25,-49 1239.25,-49 1121.25,-49 1121.25,-49 1115.25,-49 1109.25,-43 1109.25,-37 1109.25,-37 1109.25,-12.5 1109.25,-12.5 1109.25,-6.5 1115.25,-0.5 1121.25,-0.5"/>
<text text-anchor="middle" x="1180.25" y="-31.7" font-family="Times,serif" font-size="14.00">ActionController::Base</text>
<polyline fill="none" stroke="black" points="1109.25,-24.5 1251.25,-24.5"/>
</g>
<!-- ApplicationController&#45;&gt;ActionController::Base -->
<g id="edge9" class="edge">
<title>ApplicationController&#45;&gt;ActionController::Base</title>
<path fill="none" stroke="black" d="M1180.25,-85.65C1180.25,-77.08 1180.25,-68.53 1180.25,-60.68"/>
<polygon fill="none" stroke="black" points="1183.75,-60.91 1180.25,-50.91 1176.75,-60.91 1183.75,-60.91"/>
</g>
<!-- HomepageController -->
<g id="node9" class="node">
<title>HomepageController</title>
<path fill="none" stroke="black" d="M1388.88,-311.5C1388.88,-311.5 1495.62,-311.5 1495.62,-311.5 1501.62,-311.5 1507.62,-317.5 1507.62,-323.5 1507.62,-323.5 1507.62,-372.5 1507.62,-372.5 1507.62,-378.5 1501.62,-384.5 1495.62,-384.5 1495.62,-384.5 1388.88,-384.5 1388.88,-384.5 1382.88,-384.5 1376.88,-378.5 1376.88,-372.5 1376.88,-372.5 1376.88,-323.5 1376.88,-323.5 1376.88,-317.5 1382.88,-311.5 1388.88,-311.5"/>
<text text-anchor="middle" x="1442.25" y="-367.2" font-family="Times,serif" font-size="14.00">HomepageController</text>
<polyline fill="none" stroke="black" points="1376.88,-360 1507.62,-360"/>
<polyline fill="none" stroke="black" points="1376.88,-336 1507.62,-336"/>
<text text-anchor="start" x="1384.88" y="-318.7" font-family="Times,serif" font-size="14.00">I + index()</text>
</g>
<!-- HomepageController&#45;&gt;ApplicationController -->
<g id="edge10" class="edge">
<title>HomepageController&#45;&gt;ApplicationController</title>
<path fill="none" stroke="black" d="M1422.11,-311.14C1408.87,-289.94 1390,-263.66 1368.25,-245 1340.1,-220.84 1304.87,-200.68 1272.55,-185.12"/>
<polygon fill="none" stroke="black" points="1274.08,-181.97 1263.54,-180.88 1271.09,-188.31 1274.08,-181.97"/>
</g>
<!-- UsersController -->
<g id="node10" class="node">
<title>UsersController</title>
<path fill="none" stroke="black" d="M1537.62,-295C1537.62,-295 1660.88,-295 1660.88,-295 1666.88,-295 1672.88,-301 1672.88,-307 1672.88,-307 1672.88,-389 1672.88,-389 1672.88,-395 1666.88,-401 1660.88,-401 1660.88,-401 1537.62,-401 1537.62,-401 1531.62,-401 1525.62,-395 1525.62,-389 1525.62,-389 1525.62,-307 1525.62,-307 1525.62,-301 1531.62,-295 1537.62,-295"/>
<text text-anchor="middle" x="1599.25" y="-383.7" font-family="Times,serif" font-size="14.00">UsersController</text>
<polyline fill="none" stroke="black" points="1525.62,-376.5 1672.88,-376.5"/>
<polyline fill="none" stroke="black" points="1525.62,-352.5 1672.88,-352.5"/>
<text text-anchor="start" x="1533.62" y="-335.2" font-family="Times,serif" font-size="14.00">I + index()</text>
<text text-anchor="start" x="1533.62" y="-318.7" font-family="Times,serif" font-size="14.00">I + login()</text>
<text text-anchor="start" x="1533.62" y="-302.2" font-family="Times,serif" font-size="14.00">I + token_authenticate()</text>
</g>
<!-- UsersController&#45;&gt;ApplicationController -->
<g id="edge11" class="edge">
<title>UsersController&#45;&gt;ApplicationController</title>
<path fill="none" stroke="black" d="M1566.37,-294.61C1552.8,-276.64 1535.68,-257.84 1516.25,-245 1442.7,-196.39 1344.47,-171.79 1273.22,-159.61"/>
<polygon fill="none" stroke="black" points="1273.96,-156.19 1263.52,-158.01 1272.82,-163.09 1273.96,-156.19"/>
</g>
<!-- ApplicationHelper -->
<g id="node11" class="node">
<title>ApplicationHelper</title>
<path fill="none" stroke="black" d="M1703,-303.25C1703,-303.25 1795.5,-303.25 1795.5,-303.25 1801.5,-303.25 1807.5,-309.25 1807.5,-315.25 1807.5,-315.25 1807.5,-380.75 1807.5,-380.75 1807.5,-386.75 1801.5,-392.75 1795.5,-392.75 1795.5,-392.75 1703,-392.75 1703,-392.75 1697,-392.75 1691,-386.75 1691,-380.75 1691,-380.75 1691,-315.25 1691,-315.25 1691,-309.25 1697,-303.25 1703,-303.25"/>
<text text-anchor="middle" x="1749.25" y="-375.45" font-family="Times,serif" font-size="14.00">ApplicationHelper</text>
<polyline fill="none" stroke="black" points="1691,-368.25 1807.5,-368.25"/>
<polyline fill="none" stroke="black" points="1691,-344.25 1807.5,-344.25"/>
<text text-anchor="start" x="1699" y="-326.95" font-family="Times,serif" font-size="14.00">I + logged_in?()</text>
<text text-anchor="start" x="1699" y="-310.45" font-family="Times,serif" font-size="14.00">I + current_user()</text>
</g>
<!-- HomepageHelper -->
<g id="node12" class="node">
<title>HomepageHelper</title>
<path fill="none" stroke="black" d="M1837.25,-323.75C1837.25,-323.75 1925.25,-323.75 1925.25,-323.75 1931.25,-323.75 1937.25,-329.75 1937.25,-335.75 1937.25,-335.75 1937.25,-360.25 1937.25,-360.25 1937.25,-366.25 1931.25,-372.25 1925.25,-372.25 1925.25,-372.25 1837.25,-372.25 1837.25,-372.25 1831.25,-372.25 1825.25,-366.25 1825.25,-360.25 1825.25,-360.25 1825.25,-335.75 1825.25,-335.75 1825.25,-329.75 1831.25,-323.75 1837.25,-323.75"/>
<text text-anchor="middle" x="1881.25" y="-354.95" font-family="Times,serif" font-size="14.00">HomepageHelper</text>
<polyline fill="none" stroke="black" points="1825.25,-347.75 1937.25,-347.75"/>
</g>
<!-- ApplicationJob -->
<g id="node13" class="node">
<title>ApplicationJob</title>
<path fill="none" stroke="black" d="M1967,-323.75C1967,-323.75 2041.5,-323.75 2041.5,-323.75 2047.5,-323.75 2053.5,-329.75 2053.5,-335.75 2053.5,-335.75 2053.5,-360.25 2053.5,-360.25 2053.5,-366.25 2047.5,-372.25 2041.5,-372.25 2041.5,-372.25 1967,-372.25 1967,-372.25 1961,-372.25 1955,-366.25 1955,-360.25 1955,-360.25 1955,-335.75 1955,-335.75 1955,-329.75 1961,-323.75 1967,-323.75"/>
<text text-anchor="middle" x="2004.25" y="-354.95" font-family="Times,serif" font-size="14.00">ApplicationJob</text>
<polyline fill="none" stroke="black" points="1955,-347.75 2053.5,-347.75"/>
</g>
<!-- ActiveJob::Base -->
<g id="node22" class="node">
<title>ActiveJob::Base</title>
<path fill="none" stroke="black" d="M1964,-123C1964,-123 2044.5,-123 2044.5,-123 2050.5,-123 2056.5,-129 2056.5,-135 2056.5,-135 2056.5,-159.5 2056.5,-159.5 2056.5,-165.5 2050.5,-171.5 2044.5,-171.5 2044.5,-171.5 1964,-171.5 1964,-171.5 1958,-171.5 1952,-165.5 1952,-159.5 1952,-159.5 1952,-135 1952,-135 1952,-129 1958,-123 1964,-123"/>
<text text-anchor="middle" x="2004.25" y="-154.2" font-family="Times,serif" font-size="14.00">ActiveJob::Base</text>
<polyline fill="none" stroke="black" points="1952,-147 2056.5,-147"/>
</g>
<!-- ApplicationJob&#45;&gt;ActiveJob::Base -->
<g id="edge12" class="edge">
<title>ApplicationJob&#45;&gt;ActiveJob::Base</title>
<path fill="none" stroke="black" d="M2004.25,-323.42C2004.25,-288.68 2004.25,-223.51 2004.25,-183.2"/>
<polygon fill="none" stroke="black" points="2007.75,-183.31 2004.25,-173.31 2000.75,-183.31 2007.75,-183.31"/>
</g>
<!-- ApplicationMailer -->
<g id="node14" class="node">
<title>ApplicationMailer</title>
<path fill="none" stroke="black" d="M2090,-323.75C2090,-323.75 2182.5,-323.75 2182.5,-323.75 2188.5,-323.75 2194.5,-329.75 2194.5,-335.75 2194.5,-335.75 2194.5,-360.25 2194.5,-360.25 2194.5,-366.25 2188.5,-372.25 2182.5,-372.25 2182.5,-372.25 2090,-372.25 2090,-372.25 2084,-372.25 2078,-366.25 2078,-360.25 2078,-360.25 2078,-335.75 2078,-335.75 2078,-329.75 2084,-323.75 2090,-323.75"/>
<text text-anchor="middle" x="2136.25" y="-354.95" font-family="Times,serif" font-size="14.00">ApplicationMailer</text>
<polyline fill="none" stroke="black" points="2078,-347.75 2194.5,-347.75"/>
</g>
<!-- ActionMailer::Base -->
<g id="node23" class="node">
<title>ActionMailer::Base</title>
<path fill="none" stroke="black" d="M2086.62,-123C2086.62,-123 2185.88,-123 2185.88,-123 2191.88,-123 2197.88,-129 2197.88,-135 2197.88,-135 2197.88,-159.5 2197.88,-159.5 2197.88,-165.5 2191.88,-171.5 2185.88,-171.5 2185.88,-171.5 2086.62,-171.5 2086.62,-171.5 2080.62,-171.5 2074.62,-165.5 2074.62,-159.5 2074.62,-159.5 2074.62,-135 2074.62,-135 2074.62,-129 2080.62,-123 2086.62,-123"/>
<text text-anchor="middle" x="2136.25" y="-154.2" font-family="Times,serif" font-size="14.00">ActionMailer::Base</text>
<polyline fill="none" stroke="black" points="2074.62,-147 2197.88,-147"/>
</g>
<!-- ApplicationMailer&#45;&gt;ActionMailer::Base -->
<g id="edge13" class="edge">
<title>ApplicationMailer&#45;&gt;ActionMailer::Base</title>
<path fill="none" stroke="black" d="M2136.25,-323.42C2136.25,-288.68 2136.25,-223.51 2136.25,-183.2"/>
<polygon fill="none" stroke="black" points="2139.75,-183.31 2136.25,-173.31 2132.75,-183.31 2139.75,-183.31"/>
</g>
<!-- ApplicationRecord -->
<g id="node15" class="node">
<title>ApplicationRecord</title>
<path fill="none" stroke="black" d="M2346.88,-123C2346.88,-123 2441.62,-123 2441.62,-123 2447.62,-123 2453.62,-129 2453.62,-135 2453.62,-135 2453.62,-159.5 2453.62,-159.5 2453.62,-165.5 2447.62,-171.5 2441.62,-171.5 2441.62,-171.5 2346.88,-171.5 2346.88,-171.5 2340.88,-171.5 2334.88,-165.5 2334.88,-159.5 2334.88,-159.5 2334.88,-135 2334.88,-135 2334.88,-129 2340.88,-123 2346.88,-123"/>
<text text-anchor="middle" x="2394.25" y="-154.2" font-family="Times,serif" font-size="14.00">ApplicationRecord</text>
<polyline fill="none" stroke="black" points="2334.88,-147 2453.62,-147"/>
</g>
<!-- ActiveRecord::Base -->
<g id="node24" class="node">
<title>ActiveRecord::Base</title>
<path fill="none" stroke="black" d="M2343.88,-0.5C2343.88,-0.5 2444.62,-0.5 2444.62,-0.5 2450.62,-0.5 2456.62,-6.5 2456.62,-12.5 2456.62,-12.5 2456.62,-37 2456.62,-37 2456.62,-43 2450.62,-49 2444.62,-49 2444.62,-49 2343.88,-49 2343.88,-49 2337.88,-49 2331.88,-43 2331.88,-37 2331.88,-37 2331.88,-12.5 2331.88,-12.5 2331.88,-6.5 2337.88,-0.5 2343.88,-0.5"/>
<text text-anchor="middle" x="2394.25" y="-31.7" font-family="Times,serif" font-size="14.00">ActiveRecord::Base</text>
<polyline fill="none" stroke="black" points="2331.88,-24.5 2456.62,-24.5"/>
</g>
<!-- ApplicationRecord&#45;&gt;ActiveRecord::Base -->
<g id="edge14" class="edge">
<title>ApplicationRecord&#45;&gt;ActiveRecord::Base</title>
<path fill="none" stroke="black" d="M2394.25,-122.73C2394.25,-105.06 2394.25,-80.59 2394.25,-60.64"/>
<polygon fill="none" stroke="black" points="2397.75,-60.72 2394.25,-50.72 2390.75,-60.72 2397.75,-60.72"/>
</g>
<!-- ForumThread -->
<g id="node16" class="node">
<title>ForumThread</title>
<path fill="none" stroke="black" d="M2224.75,-323.75C2224.75,-323.75 2291.75,-323.75 2291.75,-323.75 2297.75,-323.75 2303.75,-329.75 2303.75,-335.75 2303.75,-335.75 2303.75,-360.25 2303.75,-360.25 2303.75,-366.25 2297.75,-372.25 2291.75,-372.25 2291.75,-372.25 2224.75,-372.25 2224.75,-372.25 2218.75,-372.25 2212.75,-366.25 2212.75,-360.25 2212.75,-360.25 2212.75,-335.75 2212.75,-335.75 2212.75,-329.75 2218.75,-323.75 2224.75,-323.75"/>
<text text-anchor="middle" x="2258.25" y="-354.95" font-family="Times,serif" font-size="14.00">ForumThread</text>
<polyline fill="none" stroke="black" points="2212.75,-347.75 2303.75,-347.75"/>
</g>
<!-- ForumThread&#45;&gt;ApplicationRecord -->
<g id="edge15" class="edge">
<title>ForumThread&#45;&gt;ApplicationRecord</title>
<path fill="none" stroke="black" d="M2268.9,-323.5C2278.93,-302.28 2294.95,-270.55 2312.25,-245 2327.73,-222.12 2347.74,-198.43 2364.11,-180.22"/>
<polygon fill="none" stroke="black" points="2366.66,-182.61 2370.8,-172.86 2361.48,-177.9 2366.66,-182.61"/>
</g>
<!-- ForumThreadComment -->
<g id="node17" class="node">
<title>ForumThreadComment</title>
<path fill="none" stroke="black" d="M2333.38,-323.75C2333.38,-323.75 2455.12,-323.75 2455.12,-323.75 2461.12,-323.75 2467.12,-329.75 2467.12,-335.75 2467.12,-335.75 2467.12,-360.25 2467.12,-360.25 2467.12,-366.25 2461.12,-372.25 2455.12,-372.25 2455.12,-372.25 2333.38,-372.25 2333.38,-372.25 2327.38,-372.25 2321.38,-366.25 2321.38,-360.25 2321.38,-360.25 2321.38,-335.75 2321.38,-335.75 2321.38,-329.75 2327.38,-323.75 2333.38,-323.75"/>
<text text-anchor="middle" x="2394.25" y="-354.95" font-family="Times,serif" font-size="14.00">ForumThreadComment</text>
<polyline fill="none" stroke="black" points="2321.38,-347.75 2467.12,-347.75"/>
</g>
<!-- ForumThreadComment&#45;&gt;ApplicationRecord -->
<g id="edge16" class="edge">
<title>ForumThreadComment&#45;&gt;ApplicationRecord</title>
<path fill="none" stroke="black" d="M2394.25,-323.42C2394.25,-288.68 2394.25,-223.51 2394.25,-183.2"/>
<polygon fill="none" stroke="black" points="2397.75,-183.31 2394.25,-173.31 2390.75,-183.31 2397.75,-183.31"/>
</g>
<!-- User -->
<g id="node18" class="node">
<title>User</title>
<path fill="none" stroke="black" d="M2497.25,-323.75C2497.25,-323.75 2527.25,-323.75 2527.25,-323.75 2533.25,-323.75 2539.25,-329.75 2539.25,-335.75 2539.25,-335.75 2539.25,-360.25 2539.25,-360.25 2539.25,-366.25 2533.25,-372.25 2527.25,-372.25 2527.25,-372.25 2497.25,-372.25 2497.25,-372.25 2491.25,-372.25 2485.25,-366.25 2485.25,-360.25 2485.25,-360.25 2485.25,-335.75 2485.25,-335.75 2485.25,-329.75 2491.25,-323.75 2497.25,-323.75"/>
<text text-anchor="middle" x="2512" y="-354.95" font-family="Times,serif" font-size="14.00">User</text>
<polyline fill="none" stroke="black" points="2485.25,-347.75 2538.75,-347.75"/>
</g>
<!-- User&#45;&gt;ApplicationRecord -->
<g id="edge17" class="edge">
<title>User&#45;&gt;ApplicationRecord</title>
<path fill="none" stroke="black" d="M2506.52,-323.27C2500.75,-301.9 2490.65,-270.08 2476.25,-245 2462.68,-221.37 2443.07,-197.98 2426.43,-180.11"/>
<polygon fill="none" stroke="black" points="2429.01,-177.75 2419.58,-172.91 2423.93,-182.57 2429.01,-177.75"/>
</g>
</g>
</svg>
