<?xml version="1.0" encoding="UTF-8" standalone="no"?>
<!DOCTYPE svg PUBLIC "-//W3C//DTD SVG 1.1//EN"
 "http://www.w3.org/Graphics/SVG/1.1/DTD/svg11.dtd">
<!-- Generated by graphviz version 12.0.0 (20240704.0754)
 -->
<!-- Title: graph_title Pages: 1 -->
<svg width="2382pt" height="459pt"
 viewBox="0.00 0.00 2382.25 459.00" xmlns="http://www.w3.org/2000/svg" xmlns:xlink="http://www.w3.org/1999/xlink">
<g id="graph0" class="graph" transform="scale(1 1) rotate(0) translate(4 455)">
<title>graph_title</title>
<polygon fill="white" stroke="none" points="-4,4 -4,-455 2378.25,-455 2378.25,4 -4,4"/>
<!-- ApplicationCable -->
<g id="node1" class="node">
<title>ApplicationCable</title>
<path fill="none" stroke="black" d="M200.62,-123C200.62,-123 287.88,-123 287.88,-123 293.88,-123 299.88,-129 299.88,-135 299.88,-135 299.88,-159.5 299.88,-159.5 299.88,-165.5 293.88,-171.5 287.88,-171.5 287.88,-171.5 200.62,-171.5 200.62,-171.5 194.62,-171.5 188.62,-165.5 188.62,-159.5 188.62,-159.5 188.62,-135 188.62,-135 188.62,-129 194.62,-123 200.62,-123"/>
<text text-anchor="middle" x="244.25" y="-154.2" font-family="Times,serif" font-size="14.00">ApplicationCable</text>
<polyline fill="none" stroke="black" points="188.62,-147 299.88,-147"/>
</g>
<!-- ApplicationCable::Channel -->
<g id="node2" class="node">
<title>ApplicationCable::Channel</title>
<path fill="none" stroke="black" d="M83.38,-323.75C83.38,-323.75 223.12,-323.75 223.12,-323.75 229.12,-323.75 235.12,-329.75 235.12,-335.75 235.12,-335.75 235.12,-360.25 235.12,-360.25 235.12,-366.25 229.12,-372.25 223.12,-372.25 223.12,-372.25 83.38,-372.25 83.38,-372.25 77.38,-372.25 71.38,-366.25 71.38,-360.25 71.38,-360.25 71.38,-335.75 71.38,-335.75 71.38,-329.75 77.38,-323.75 83.38,-323.75"/>
<text text-anchor="middle" x="153.25" y="-354.95" font-family="Times,serif" font-size="14.00">ApplicationCable::Channel</text>
<polyline fill="none" stroke="black" points="71.38,-347.75 235.12,-347.75"/>
</g>
<!-- ApplicationCable::Channel&#45;&gt;ApplicationCable -->
<g id="edge1" class="edge">
<title>ApplicationCable::Channel&#45;&gt;ApplicationCable</title>
<path fill="none" stroke="black" d="M164.05,-323.42C179.92,-288.76 209.66,-223.79 228.13,-183.46"/>
<polygon fill="black" stroke="black" points="228.1,-183.53 226.96,-176.41 233.09,-172.62 234.23,-179.74 228.1,-183.53"/>
</g>
<!-- ActionCable::Channel::Base -->
<g id="node18" class="node">
<title>ActionCable::Channel::Base</title>
<path fill="none" stroke="black" d="M12,-123C12,-123 158.5,-123 158.5,-123 164.5,-123 170.5,-129 170.5,-135 170.5,-135 170.5,-159.5 170.5,-159.5 170.5,-165.5 164.5,-171.5 158.5,-171.5 158.5,-171.5 12,-171.5 12,-171.5 6,-171.5 0,-165.5 0,-159.5 0,-159.5 0,-135 0,-135 0,-129 6,-123 12,-123"/>
<text text-anchor="middle" x="85.25" y="-154.2" font-family="Times,serif" font-size="14.00">ActionCable::Channel::Base</text>
<polyline fill="none" stroke="black" points="0,-147 170.5,-147"/>
</g>
<!-- ApplicationCable::Channel&#45;&gt;ActionCable::Channel::Base -->
<g id="edge3" class="edge">
<title>ApplicationCable::Channel&#45;&gt;ActionCable::Channel::Base</title>
<path fill="none" stroke="black" d="M145.18,-323.42C133.25,-288.53 110.81,-222.95 97.03,-182.68"/>
<polygon fill="none" stroke="black" points="100.35,-181.56 93.8,-173.23 93.72,-183.83 100.35,-181.56"/>
</g>
<!-- ApplicationCable::Connection -->
<g id="node3" class="node">
<title>ApplicationCable::Connection</title>
<path fill="none" stroke="black" d="M298.75,-323.75C298.75,-323.75 455.75,-323.75 455.75,-323.75 461.75,-323.75 467.75,-329.75 467.75,-335.75 467.75,-335.75 467.75,-360.25 467.75,-360.25 467.75,-366.25 461.75,-372.25 455.75,-372.25 455.75,-372.25 298.75,-372.25 298.75,-372.25 292.75,-372.25 286.75,-366.25 286.75,-360.25 286.75,-360.25 286.75,-335.75 286.75,-335.75 286.75,-329.75 292.75,-323.75 298.75,-323.75"/>
<text text-anchor="middle" x="377.25" y="-354.95" font-family="Times,serif" font-size="14.00">ApplicationCable::Connection</text>
<polyline fill="none" stroke="black" points="286.75,-347.75 467.75,-347.75"/>
</g>
<!-- ApplicationCable::Connection&#45;&gt;ApplicationCable -->
<g id="edge2" class="edge">
<title>ApplicationCable::Connection&#45;&gt;ApplicationCable</title>
<path fill="none" stroke="black" d="M361.47,-323.42C338.07,-288.46 294.05,-222.67 267.12,-182.43"/>
<polygon fill="black" stroke="black" points="267.18,-182.52 260.52,-179.76 260.51,-172.55 267.17,-175.31 267.18,-182.52"/>
</g>
<!-- ActionCable::Connection::Base -->
<g id="node19" class="node">
<title>ActionCable::Connection::Base</title>
<path fill="none" stroke="black" d="M330.38,-123C330.38,-123 494.12,-123 494.12,-123 500.12,-123 506.12,-129 506.12,-135 506.12,-135 506.12,-159.5 506.12,-159.5 506.12,-165.5 500.12,-171.5 494.12,-171.5 494.12,-171.5 330.38,-171.5 330.38,-171.5 324.38,-171.5 318.38,-165.5 318.38,-159.5 318.38,-159.5 318.38,-135 318.38,-135 318.38,-129 324.38,-123 330.38,-123"/>
<text text-anchor="middle" x="412.25" y="-154.2" font-family="Times,serif" font-size="14.00">ActionCable::Connection::Base</text>
<polyline fill="none" stroke="black" points="318.38,-147 506.12,-147"/>
</g>
<!-- ApplicationCable::Connection&#45;&gt;ActionCable::Connection::Base -->
<g id="edge4" class="edge">
<title>ApplicationCable::Connection&#45;&gt;ActionCable::Connection::Base</title>
<path fill="none" stroke="black" d="M381.4,-323.42C387.53,-288.61 399.05,-223.23 406.14,-182.94"/>
<polygon fill="none" stroke="black" points="409.55,-183.75 407.84,-173.29 402.66,-182.53 409.55,-183.75"/>
</g>
<!-- Api::V1::AuthController -->
<g id="node4" class="node">
<title>Api::V1::AuthController</title>
<path fill="none" stroke="black" d="M497.75,-295C497.75,-295 660.75,-295 660.75,-295 666.75,-295 672.75,-301 672.75,-307 672.75,-307 672.75,-389 672.75,-389 672.75,-395 666.75,-401 660.75,-401 660.75,-401 497.75,-401 497.75,-401 491.75,-401 485.75,-395 485.75,-389 485.75,-389 485.75,-307 485.75,-307 485.75,-301 491.75,-295 497.75,-295"/>
<text text-anchor="middle" x="579.25" y="-383.7" font-family="Times,serif" font-size="14.00">Api::V1::AuthController</text>
<polyline fill="none" stroke="black" points="485.75,-376.5 672.75,-376.5"/>
<polyline fill="none" stroke="black" points="485.75,-352.5 672.75,-352.5"/>
<text text-anchor="start" x="493.75" y="-335.2" font-family="Times,serif" font-size="14.00">I + login()</text>
<text text-anchor="start" x="493.75" y="-318.7" font-family="Times,serif" font-size="14.00">I &#45; login_params()</text>
<text text-anchor="start" x="493.75" y="-302.2" font-family="Times,serif" font-size="14.00">I &#45; handle_record_not_found(e)</text>
</g>
<!-- ApplicationController -->
<g id="node8" class="node">
<title>ApplicationController</title>
<path fill="none" stroke="black" d="M1007.75,-86C1007.75,-86 1146.75,-86 1146.75,-86 1152.75,-86 1158.75,-92 1158.75,-98 1158.75,-98 1158.75,-196.5 1158.75,-196.5 1158.75,-202.5 1152.75,-208.5 1146.75,-208.5 1146.75,-208.5 1007.75,-208.5 1007.75,-208.5 1001.75,-208.5 995.75,-202.5 995.75,-196.5 995.75,-196.5 995.75,-98 995.75,-98 995.75,-92 1001.75,-86 1007.75,-86"/>
<text text-anchor="middle" x="1077.25" y="-191.2" font-family="Times,serif" font-size="14.00">ApplicationController</text>
<polyline fill="none" stroke="black" points="995.75,-184 1158.75,-184"/>
<polyline fill="none" stroke="black" points="995.75,-160 1158.75,-160"/>
<text text-anchor="start" x="1003.75" y="-142.7" font-family="Times,serif" font-size="14.00">I + encode_token(payload)</text>
<text text-anchor="start" x="1003.75" y="-126.2" font-family="Times,serif" font-size="14.00">I + decoded_token()</text>
<text text-anchor="start" x="1003.75" y="-109.7" font-family="Times,serif" font-size="14.00">I + current_user()</text>
<text text-anchor="start" x="1003.75" y="-93.2" font-family="Times,serif" font-size="14.00">I + authorized()</text>
</g>
<!-- Api::V1::AuthController&#45;&gt;ApplicationController -->
<g id="edge5" class="edge">
<title>Api::V1::AuthController&#45;&gt;ApplicationController</title>
<path fill="none" stroke="black" d="M621.66,-294.55C638.75,-276.46 659.74,-257.6 682.25,-245 777.08,-191.91 900.67,-167.69 984.16,-156.81"/>
<polygon fill="none" stroke="black" points="984.43,-160.3 993.91,-155.58 983.55,-153.36 984.43,-160.3"/>
</g>
<!-- Api::V1::ForumThreadCommentsController -->
<g id="node5" class="node">
<title>Api::V1::ForumThreadCommentsController</title>
<path fill="none" stroke="black" d="M703.12,-245.5C703.12,-245.5 937.38,-245.5 937.38,-245.5 943.38,-245.5 949.38,-251.5 949.38,-257.5 949.38,-257.5 949.38,-438.5 949.38,-438.5 949.38,-444.5 943.38,-450.5 937.38,-450.5 937.38,-450.5 703.12,-450.5 703.12,-450.5 697.12,-450.5 691.12,-444.5 691.12,-438.5 691.12,-438.5 691.12,-257.5 691.12,-257.5 691.12,-251.5 697.12,-245.5 703.12,-245.5"/>
<text text-anchor="middle" x="820.25" y="-433.2" font-family="Times,serif" font-size="14.00">Api::V1::ForumThreadCommentsController</text>
<polyline fill="none" stroke="black" points="691.12,-426 949.38,-426"/>
<polyline fill="none" stroke="black" points="691.12,-402 949.38,-402"/>
<text text-anchor="start" x="699.12" y="-384.7" font-family="Times,serif" font-size="14.00">I + index()</text>
<text text-anchor="start" x="699.12" y="-368.2" font-family="Times,serif" font-size="14.00">I + showCommentsForThread()</text>
<text text-anchor="start" x="699.12" y="-351.7" font-family="Times,serif" font-size="14.00">I + create()</text>
<text text-anchor="start" x="699.12" y="-335.2" font-family="Times,serif" font-size="14.00">I + update()</text>
<text text-anchor="start" x="699.12" y="-318.7" font-family="Times,serif" font-size="14.00">I + show()</text>
<text text-anchor="start" x="699.12" y="-302.2" font-family="Times,serif" font-size="14.00">I + destroy()</text>
<text text-anchor="start" x="699.12" y="-285.7" font-family="Times,serif" font-size="14.00">I &#45; forumThreadComment_params()</text>
<text text-anchor="start" x="699.12" y="-269.2" font-family="Times,serif" font-size="14.00">I &#45; set_forumThreadComment()</text>
<text text-anchor="start" x="699.12" y="-252.7" font-family="Times,serif" font-size="14.00">I &#45; get_commentsForCurrentThread()</text>
</g>
<!-- Api::V1::ForumThreadCommentsController&#45;&gt;ApplicationController -->
<g id="edge6" class="edge">
<title>Api::V1::ForumThreadCommentsController&#45;&gt;ApplicationController</title>
<path fill="none" stroke="black" d="M949.5,-247.04C963.21,-236.44 976.91,-225.85 989.98,-215.74"/>
<polygon fill="none" stroke="black" points="991.94,-218.65 997.71,-209.76 987.66,-213.11 991.94,-218.65"/>
</g>
<!-- Api::V1::ForumThreadController -->
<g id="node6" class="node">
<title>Api::V1::ForumThreadController</title>
<path fill="none" stroke="black" d="M979.62,-245.5C979.62,-245.5 1174.88,-245.5 1174.88,-245.5 1180.88,-245.5 1186.88,-251.5 1186.88,-257.5 1186.88,-257.5 1186.88,-438.5 1186.88,-438.5 1186.88,-444.5 1180.88,-450.5 1174.88,-450.5 1174.88,-450.5 979.62,-450.5 979.62,-450.5 973.62,-450.5 967.62,-444.5 967.62,-438.5 967.62,-438.5 967.62,-257.5 967.62,-257.5 967.62,-251.5 973.62,-245.5 979.62,-245.5"/>
<text text-anchor="middle" x="1077.25" y="-433.2" font-family="Times,serif" font-size="14.00">Api::V1::ForumThreadController</text>
<polyline fill="none" stroke="black" points="967.62,-426 1186.88,-426"/>
<polyline fill="none" stroke="black" points="967.62,-402 1186.88,-402"/>
<text text-anchor="start" x="975.62" y="-384.7" font-family="Times,serif" font-size="14.00">I + index()</text>
<text text-anchor="start" x="975.62" y="-368.2" font-family="Times,serif" font-size="14.00">I + showForumThreadsByCategory()</text>
<text text-anchor="start" x="975.62" y="-351.7" font-family="Times,serif" font-size="14.00">I + create()</text>
<text text-anchor="start" x="975.62" y="-335.2" font-family="Times,serif" font-size="14.00">I + update()</text>
<text text-anchor="start" x="975.62" y="-318.7" font-family="Times,serif" font-size="14.00">I + show()</text>
<text text-anchor="start" x="975.62" y="-302.2" font-family="Times,serif" font-size="14.00">I + destroy()</text>
<text text-anchor="start" x="975.62" y="-285.7" font-family="Times,serif" font-size="14.00">I &#45; forumThread_params()</text>
<text text-anchor="start" x="975.62" y="-269.2" font-family="Times,serif" font-size="14.00">I &#45; set_forumThread()</text>
<text text-anchor="start" x="975.62" y="-252.7" font-family="Times,serif" font-size="14.00">I &#45; get_forumThreadsByCategory()</text>
</g>
<!-- Api::V1::ForumThreadController&#45;&gt;ApplicationController -->
<g id="edge7" class="edge">
<title>Api::V1::ForumThreadController&#45;&gt;ApplicationController</title>
<path fill="none" stroke="black" d="M1077.25,-245.01C1077.25,-236.58 1077.25,-228.19 1077.25,-220.06"/>
<polygon fill="none" stroke="black" points="1080.75,-220.28 1077.25,-210.28 1073.75,-220.28 1080.75,-220.28"/>
</g>
<!-- Api::V1::UsersController -->
<g id="node7" class="node">
<title>Api::V1::UsersController</title>
<path fill="none" stroke="black" d="M1217.25,-245.5C1217.25,-245.5 1347.25,-245.5 1347.25,-245.5 1353.25,-245.5 1359.25,-251.5 1359.25,-257.5 1359.25,-257.5 1359.25,-438.5 1359.25,-438.5 1359.25,-444.5 1353.25,-450.5 1347.25,-450.5 1347.25,-450.5 1217.25,-450.5 1217.25,-450.5 1211.25,-450.5 1205.25,-444.5 1205.25,-438.5 1205.25,-438.5 1205.25,-257.5 1205.25,-257.5 1205.25,-251.5 1211.25,-245.5 1217.25,-245.5"/>
<text text-anchor="middle" x="1282.25" y="-433.2" font-family="Times,serif" font-size="14.00">Api::V1::UsersController</text>
<polyline fill="none" stroke="black" points="1205.25,-426 1359.25,-426"/>
<polyline fill="none" stroke="black" points="1205.25,-402 1359.25,-402"/>
<text text-anchor="start" x="1213.25" y="-384.7" font-family="Times,serif" font-size="14.00">I + index()</text>
<text text-anchor="start" x="1213.25" y="-368.2" font-family="Times,serif" font-size="14.00">I + create()</text>
<text text-anchor="start" x="1213.25" y="-351.7" font-family="Times,serif" font-size="14.00">I + me()</text>
<text text-anchor="start" x="1213.25" y="-335.2" font-family="Times,serif" font-size="14.00">I + logout()</text>
<text text-anchor="start" x="1213.25" y="-318.7" font-family="Times,serif" font-size="14.00">I + show()</text>
<text text-anchor="start" x="1213.25" y="-302.2" font-family="Times,serif" font-size="14.00">I + destroy()</text>
<text text-anchor="start" x="1213.25" y="-285.7" font-family="Times,serif" font-size="14.00">I + update()</text>
<text text-anchor="start" x="1213.25" y="-269.2" font-family="Times,serif" font-size="14.00">I &#45; user_params()</text>
<text text-anchor="start" x="1213.25" y="-252.7" font-family="Times,serif" font-size="14.00">I &#45; set_user()</text>
</g>
<!-- Api::V1::UsersController&#45;&gt;ApplicationController -->
<g id="edge8" class="edge">
<title>Api::V1::UsersController&#45;&gt;ApplicationController</title>
<path fill="none" stroke="black" d="M1204.93,-253.76C1202.04,-250.77 1199.14,-247.84 1196.25,-245 1186.43,-235.36 1175.73,-225.66 1164.9,-216.33"/>
<polygon fill="none" stroke="black" points="1167.24,-213.73 1157.35,-209.92 1162.7,-219.06 1167.24,-213.73"/>
</g>
<!-- ActionController::Base -->
<g id="node20" class="node">
<title>ActionController::Base</title>
<path fill="none" stroke="black" d="M1018.25,-0.5C1018.25,-0.5 1136.25,-0.5 1136.25,-0.5 1142.25,-0.5 1148.25,-6.5 1148.25,-12.5 1148.25,-12.5 1148.25,-37 1148.25,-37 1148.25,-43 1142.25,-49 1136.25,-49 1136.25,-49 1018.25,-49 1018.25,-49 1012.25,-49 1006.25,-43 1006.25,-37 1006.25,-37 1006.25,-12.5 1006.25,-12.5 1006.25,-6.5 1012.25,-0.5 1018.25,-0.5"/>
<text text-anchor="middle" x="1077.25" y="-31.7" font-family="Times,serif" font-size="14.00">ActionController::Base</text>
<polyline fill="none" stroke="black" points="1006.25,-24.5 1148.25,-24.5"/>
</g>
<!-- ApplicationController&#45;&gt;ActionController::Base -->
<g id="edge9" class="edge">
<title>ApplicationController&#45;&gt;ActionController::Base</title>
<path fill="none" stroke="black" d="M1077.25,-85.65C1077.25,-77.08 1077.25,-68.53 1077.25,-60.68"/>
<polygon fill="none" stroke="black" points="1080.75,-60.91 1077.25,-50.91 1073.75,-60.91 1080.75,-60.91"/>
</g>
<!-- HomepageController -->
<g id="node9" class="node">
<title>HomepageController</title>
<path fill="none" stroke="black" d="M1388.88,-311.5C1388.88,-311.5 1495.62,-311.5 1495.62,-311.5 1501.62,-311.5 1507.62,-317.5 1507.62,-323.5 1507.62,-323.5 1507.62,-372.5 1507.62,-372.5 1507.62,-378.5 1501.62,-384.5 1495.62,-384.5 1495.62,-384.5 1388.88,-384.5 1388.88,-384.5 1382.88,-384.5 1376.88,-378.5 1376.88,-372.5 1376.88,-372.5 1376.88,-323.5 1376.88,-323.5 1376.88,-317.5 1382.88,-311.5 1388.88,-311.5"/>
<text text-anchor="middle" x="1442.25" y="-367.2" font-family="Times,serif" font-size="14.00">HomepageController</text>
<polyline fill="none" stroke="black" points="1376.88,-360 1507.62,-360"/>
<polyline fill="none" stroke="black" points="1376.88,-336 1507.62,-336"/>
<text text-anchor="start" x="1384.88" y="-318.7" font-family="Times,serif" font-size="14.00">I + index()</text>
</g>
<!-- HomepageController&#45;&gt;ApplicationController -->
<g id="edge10" class="edge">
<title>HomepageController&#45;&gt;ApplicationController</title>
<path fill="none" stroke="black" d="M1423.96,-311.38C1411.07,-289.46 1391.9,-262.32 1368.25,-245 1309.72,-202.14 1231.05,-177.49 1170.26,-163.82"/>
<polygon fill="none" stroke="black" points="1171.12,-160.42 1160.61,-161.71 1169.63,-167.26 1171.12,-160.42"/>
</g>
<!-- ApplicationHelper -->
<g id="node10" class="node">
<title>ApplicationHelper</title>
<path fill="none" stroke="black" d="M1538,-303.25C1538,-303.25 1630.5,-303.25 1630.5,-303.25 1636.5,-303.25 1642.5,-309.25 1642.5,-315.25 1642.5,-315.25 1642.5,-380.75 1642.5,-380.75 1642.5,-386.75 1636.5,-392.75 1630.5,-392.75 1630.5,-392.75 1538,-392.75 1538,-392.75 1532,-392.75 1526,-386.75 1526,-380.75 1526,-380.75 1526,-315.25 1526,-315.25 1526,-309.25 1532,-303.25 1538,-303.25"/>
<text text-anchor="middle" x="1584.25" y="-375.45" font-family="Times,serif" font-size="14.00">ApplicationHelper</text>
<polyline fill="none" stroke="black" points="1526,-368.25 1642.5,-368.25"/>
<polyline fill="none" stroke="black" points="1526,-344.25 1642.5,-344.25"/>
<text text-anchor="start" x="1534" y="-326.95" font-family="Times,serif" font-size="14.00">I + logged_in?()</text>
<text text-anchor="start" x="1534" y="-310.45" font-family="Times,serif" font-size="14.00">I + current_user()</text>
</g>
<!-- HomepageHelper -->
<g id="node11" class="node">
<title>HomepageHelper</title>
<path fill="none" stroke="black" d="M1672.25,-323.75C1672.25,-323.75 1760.25,-323.75 1760.25,-323.75 1766.25,-323.75 1772.25,-329.75 1772.25,-335.75 1772.25,-335.75 1772.25,-360.25 1772.25,-360.25 1772.25,-366.25 1766.25,-372.25 1760.25,-372.25 1760.25,-372.25 1672.25,-372.25 1672.25,-372.25 1666.25,-372.25 1660.25,-366.25 1660.25,-360.25 1660.25,-360.25 1660.25,-335.75 1660.25,-335.75 1660.25,-329.75 1666.25,-323.75 1672.25,-323.75"/>
<text text-anchor="middle" x="1716.25" y="-354.95" font-family="Times,serif" font-size="14.00">HomepageHelper</text>
<polyline fill="none" stroke="black" points="1660.25,-347.75 1772.25,-347.75"/>
</g>
<!-- ApplicationJob -->
<g id="node12" class="node">
<title>ApplicationJob</title>
<path fill="none" stroke="black" d="M1802,-323.75C1802,-323.75 1876.5,-323.75 1876.5,-323.75 1882.5,-323.75 1888.5,-329.75 1888.5,-335.75 1888.5,-335.75 1888.5,-360.25 1888.5,-360.25 1888.5,-366.25 1882.5,-372.25 1876.5,-372.25 1876.5,-372.25 1802,-372.25 1802,-372.25 1796,-372.25 1790,-366.25 1790,-360.25 1790,-360.25 1790,-335.75 1790,-335.75 1790,-329.75 1796,-323.75 1802,-323.75"/>
<text text-anchor="middle" x="1839.25" y="-354.95" font-family="Times,serif" font-size="14.00">ApplicationJob</text>
<polyline fill="none" stroke="black" points="1790,-347.75 1888.5,-347.75"/>
</g>
<!-- ActiveJob::Base -->
<g id="node21" class="node">
<title>ActiveJob::Base</title>
<path fill="none" stroke="black" d="M1799,-123C1799,-123 1879.5,-123 1879.5,-123 1885.5,-123 1891.5,-129 1891.5,-135 1891.5,-135 1891.5,-159.5 1891.5,-159.5 1891.5,-165.5 1885.5,-171.5 1879.5,-171.5 1879.5,-171.5 1799,-171.5 1799,-171.5 1793,-171.5 1787,-165.5 1787,-159.5 1787,-159.5 1787,-135 1787,-135 1787,-129 1793,-123 1799,-123"/>
<text text-anchor="middle" x="1839.25" y="-154.2" font-family="Times,serif" font-size="14.00">ActiveJob::Base</text>
<polyline fill="none" stroke="black" points="1787,-147 1891.5,-147"/>
</g>
<!-- ApplicationJob&#45;&gt;ActiveJob::Base -->
<g id="edge11" class="edge">
<title>ApplicationJob&#45;&gt;ActiveJob::Base</title>
<path fill="none" stroke="black" d="M1839.25,-323.42C1839.25,-288.68 1839.25,-223.51 1839.25,-183.2"/>
<polygon fill="none" stroke="black" points="1842.75,-183.31 1839.25,-173.31 1835.75,-183.31 1842.75,-183.31"/>
</g>
<!-- ApplicationMailer -->
<g id="node13" class="node">
<title>ApplicationMailer</title>
<path fill="none" stroke="black" d="M1925,-323.75C1925,-323.75 2017.5,-323.75 2017.5,-323.75 2023.5,-323.75 2029.5,-329.75 2029.5,-335.75 2029.5,-335.75 2029.5,-360.25 2029.5,-360.25 2029.5,-366.25 2023.5,-372.25 2017.5,-372.25 2017.5,-372.25 1925,-372.25 1925,-372.25 1919,-372.25 1913,-366.25 1913,-360.25 1913,-360.25 1913,-335.75 1913,-335.75 1913,-329.75 1919,-323.75 1925,-323.75"/>
<text text-anchor="middle" x="1971.25" y="-354.95" font-family="Times,serif" font-size="14.00">ApplicationMailer</text>
<polyline fill="none" stroke="black" points="1913,-347.75 2029.5,-347.75"/>
</g>
<!-- ActionMailer::Base -->
<g id="node22" class="node">
<title>ActionMailer::Base</title>
<path fill="none" stroke="black" d="M1921.62,-123C1921.62,-123 2020.88,-123 2020.88,-123 2026.88,-123 2032.88,-129 2032.88,-135 2032.88,-135 2032.88,-159.5 2032.88,-159.5 2032.88,-165.5 2026.88,-171.5 2020.88,-171.5 2020.88,-171.5 1921.62,-171.5 1921.62,-171.5 1915.62,-171.5 1909.62,-165.5 1909.62,-159.5 1909.62,-159.5 1909.62,-135 1909.62,-135 1909.62,-129 1915.62,-123 1921.62,-123"/>
<text text-anchor="middle" x="1971.25" y="-154.2" font-family="Times,serif" font-size="14.00">ActionMailer::Base</text>
<polyline fill="none" stroke="black" points="1909.62,-147 2032.88,-147"/>
</g>
<!-- ApplicationMailer&#45;&gt;ActionMailer::Base -->
<g id="edge12" class="edge">
<title>ApplicationMailer&#45;&gt;ActionMailer::Base</title>
<path fill="none" stroke="black" d="M1971.25,-323.42C1971.25,-288.68 1971.25,-223.51 1971.25,-183.2"/>
<polygon fill="none" stroke="black" points="1974.75,-183.31 1971.25,-173.31 1967.75,-183.31 1974.75,-183.31"/>
</g>
<!-- ApplicationRecord -->
<g id="node14" class="node">
<title>ApplicationRecord</title>
<path fill="none" stroke="black" d="M2181.88,-123C2181.88,-123 2276.62,-123 2276.62,-123 2282.62,-123 2288.62,-129 2288.62,-135 2288.62,-135 2288.62,-159.5 2288.62,-159.5 2288.62,-165.5 2282.62,-171.5 2276.62,-171.5 2276.62,-171.5 2181.88,-171.5 2181.88,-171.5 2175.88,-171.5 2169.88,-165.5 2169.88,-159.5 2169.88,-159.5 2169.88,-135 2169.88,-135 2169.88,-129 2175.88,-123 2181.88,-123"/>
<text text-anchor="middle" x="2229.25" y="-154.2" font-family="Times,serif" font-size="14.00">ApplicationRecord</text>
<polyline fill="none" stroke="black" points="2169.88,-147 2288.62,-147"/>
</g>
<!-- ActiveRecord::Base -->
<g id="node23" class="node">
<title>ActiveRecord::Base</title>
<path fill="none" stroke="black" d="M2178.88,-0.5C2178.88,-0.5 2279.62,-0.5 2279.62,-0.5 2285.62,-0.5 2291.62,-6.5 2291.62,-12.5 2291.62,-12.5 2291.62,-37 2291.62,-37 2291.62,-43 2285.62,-49 2279.62,-49 2279.62,-49 2178.88,-49 2178.88,-49 2172.88,-49 2166.88,-43 2166.88,-37 2166.88,-37 2166.88,-12.5 2166.88,-12.5 2166.88,-6.5 2172.88,-0.5 2178.88,-0.5"/>
<text text-anchor="middle" x="2229.25" y="-31.7" font-family="Times,serif" font-size="14.00">ActiveRecord::Base</text>
<polyline fill="none" stroke="black" points="2166.88,-24.5 2291.62,-24.5"/>
</g>
<!-- ApplicationRecord&#45;&gt;ActiveRecord::Base -->
<g id="edge13" class="edge">
<title>ApplicationRecord&#45;&gt;ActiveRecord::Base</title>
<path fill="none" stroke="black" d="M2229.25,-122.73C2229.25,-105.06 2229.25,-80.59 2229.25,-60.64"/>
<polygon fill="none" stroke="black" points="2232.75,-60.72 2229.25,-50.72 2225.75,-60.72 2232.75,-60.72"/>
</g>
<!-- ForumThread -->
<g id="node15" class="node">
<title>ForumThread</title>
<path fill="none" stroke="black" d="M2059.75,-323.75C2059.75,-323.75 2126.75,-323.75 2126.75,-323.75 2132.75,-323.75 2138.75,-329.75 2138.75,-335.75 2138.75,-335.75 2138.75,-360.25 2138.75,-360.25 2138.75,-366.25 2132.75,-372.25 2126.75,-372.25 2126.75,-372.25 2059.75,-372.25 2059.75,-372.25 2053.75,-372.25 2047.75,-366.25 2047.75,-360.25 2047.75,-360.25 2047.75,-335.75 2047.75,-335.75 2047.75,-329.75 2053.75,-323.75 2059.75,-323.75"/>
<text text-anchor="middle" x="2093.25" y="-354.95" font-family="Times,serif" font-size="14.00">ForumThread</text>
<polyline fill="none" stroke="black" points="2047.75,-347.75 2138.75,-347.75"/>
</g>
<!-- ForumThread&#45;&gt;ApplicationRecord -->
<g id="edge14" class="edge">
<title>ForumThread&#45;&gt;ApplicationRecord</title>
<path fill="none" stroke="black" d="M2103.9,-323.5C2113.93,-302.28 2129.95,-270.55 2147.25,-245 2162.73,-222.12 2182.74,-198.43 2199.11,-180.22"/>
<polygon fill="none" stroke="black" points="2201.66,-182.61 2205.8,-172.86 2196.48,-177.9 2201.66,-182.61"/>
</g>
<!-- ForumThreadComment -->
<g id="node16" class="node">
<title>ForumThreadComment</title>
<path fill="none" stroke="black" d="M2168.38,-323.75C2168.38,-323.75 2290.12,-323.75 2290.12,-323.75 2296.12,-323.75 2302.12,-329.75 2302.12,-335.75 2302.12,-335.75 2302.12,-360.25 2302.12,-360.25 2302.12,-366.25 2296.12,-372.25 2290.12,-372.25 2290.12,-372.25 2168.38,-372.25 2168.38,-372.25 2162.38,-372.25 2156.38,-366.25 2156.38,-360.25 2156.38,-360.25 2156.38,-335.75 2156.38,-335.75 2156.38,-329.75 2162.38,-323.75 2168.38,-323.75"/>
<text text-anchor="middle" x="2229.25" y="-354.95" font-family="Times,serif" font-size="14.00">ForumThreadComment</text>
<polyline fill="none" stroke="black" points="2156.38,-347.75 2302.12,-347.75"/>
</g>
<!-- ForumThreadComment&#45;&gt;ApplicationRecord -->
<g id="edge15" class="edge">
<title>ForumThreadComment&#45;&gt;ApplicationRecord</title>
<path fill="none" stroke="black" d="M2229.25,-323.42C2229.25,-288.68 2229.25,-223.51 2229.25,-183.2"/>
<polygon fill="none" stroke="black" points="2232.75,-183.31 2229.25,-173.31 2225.75,-183.31 2232.75,-183.31"/>
</g>
<!-- User -->
<g id="node17" class="node">
<title>User</title>
<path fill="none" stroke="black" d="M2332.25,-323.75C2332.25,-323.75 2362.25,-323.75 2362.25,-323.75 2368.25,-323.75 2374.25,-329.75 2374.25,-335.75 2374.25,-335.75 2374.25,-360.25 2374.25,-360.25 2374.25,-366.25 2368.25,-372.25 2362.25,-372.25 2362.25,-372.25 2332.25,-372.25 2332.25,-372.25 2326.25,-372.25 2320.25,-366.25 2320.25,-360.25 2320.25,-360.25 2320.25,-335.75 2320.25,-335.75 2320.25,-329.75 2326.25,-323.75 2332.25,-323.75"/>
<text text-anchor="middle" x="2347" y="-354.95" font-family="Times,serif" font-size="14.00">User</text>
<polyline fill="none" stroke="black" points="2320.25,-347.75 2373.75,-347.75"/>
</g>
<!-- User&#45;&gt;ApplicationRecord -->
<g id="edge16" class="edge">
<title>User&#45;&gt;ApplicationRecord</title>
<path fill="none" stroke="black" d="M2341.52,-323.27C2335.75,-301.9 2325.65,-270.08 2311.25,-245 2297.68,-221.37 2278.07,-197.98 2261.43,-180.11"/>
<polygon fill="none" stroke="black" points="2264.01,-177.75 2254.58,-172.91 2258.93,-182.57 2264.01,-177.75"/>
</g>
</g>
</svg>
