<?xml version="1.0" encoding="UTF-8" standalone="no"?>
<!DOCTYPE svg PUBLIC "-//W3C//DTD SVG 1.1//EN"
 "http://www.w3.org/Graphics/SVG/1.1/DTD/svg11.dtd">
<!-- Generated by graphviz version 12.0.0 (20240704.0754)
 -->
<!-- Title: controllers_diagram Pages: 1 -->
<svg width="1742pt" height="1627pt"
 viewBox="0.00 0.00 1742.25 1627.26" xmlns="http://www.w3.org/2000/svg" xmlns:xlink="http://www.w3.org/1999/xlink">
<g id="graph0" class="graph" transform="scale(1 1) rotate(0) translate(4 1623.26)">
<title>controllers_diagram</title>
<polygon fill="none" stroke="none" points="-4,4 -4,-1623.26 1738.25,-1623.26 1738.25,4 -4,4"/>
<!-- _diagram_info -->
<g id="node1" class="node">
<title>_diagram_info</title>
<text text-anchor="start" x="1504" y="-286.65" font-family="Times,serif" font-size="13.00">Controllers diagram</text>
<text text-anchor="start" x="1504" y="-271.65" font-family="Times,serif" font-size="13.00">Date: Jul 28 2024 &#45; 08:19</text>
<text text-anchor="start" x="1504" y="-256.65" font-family="Times,serif" font-size="13.00">Migration version: 20240628222613</text>
<text text-anchor="start" x="1504" y="-241.65" font-family="Times,serif" font-size="13.00">Generated by RailRoady 1.6.0</text>
<text text-anchor="start" x="1504" y="-226.65" font-family="Times,serif" font-size="13.00">http://railroady.prestonlee.com</text>
</g>
<!-- Api::V1::AuthController -->
<g id="node2" class="node">
<title>Api::V1::AuthController</title>
<path fill="none" stroke="black" d="M12,-798.68C12,-798.68 143.5,-798.68 143.5,-798.68 149.5,-798.68 155.5,-804.68 155.5,-810.68 155.5,-810.68 155.5,-933.68 155.5,-933.68 155.5,-939.68 149.5,-945.68 143.5,-945.68 143.5,-945.68 12,-945.68 12,-945.68 6,-945.68 0,-939.68 0,-933.68 0,-933.68 0,-810.68 0,-810.68 0,-804.68 6,-798.68 12,-798.68"/>
<text text-anchor="middle" x="77.75" y="-928.38" font-family="Times,serif" font-size="14.00">Api::V1::AuthController</text>
<polyline fill="none" stroke="black" points="0,-921.18 155.5,-921.18"/>
<text text-anchor="start" x="8" y="-903.88" font-family="Times,serif" font-size="14.00">login</text>
<polyline fill="none" stroke="black" points="0,-896.68 155.5,-896.68"/>
<polyline fill="none" stroke="black" points="0,-872.68 155.5,-872.68"/>
<text text-anchor="start" x="8" y="-855.38" font-family="Times,serif" font-size="14.00">_layout</text>
<text text-anchor="start" x="8" y="-838.88" font-family="Times,serif" font-size="14.00">_layout_from_proc</text>
<text text-anchor="start" x="8" y="-822.38" font-family="Times,serif" font-size="14.00">handle_record_not_found</text>
<text text-anchor="start" x="8" y="-805.88" font-family="Times,serif" font-size="14.00">login_params</text>
</g>
<!-- Api::V1::ForumThreadCommentsController -->
<g id="node3" class="node">
<title>Api::V1::ForumThreadCommentsController</title>
<path fill="none" stroke="black" d="M1477.39,-632.79C1477.39,-632.79 1711.64,-632.79 1711.64,-632.79 1717.64,-632.79 1723.64,-638.79 1723.64,-644.79 1723.64,-644.79 1723.64,-866.79 1723.64,-866.79 1723.64,-872.79 1717.64,-878.79 1711.64,-878.79 1711.64,-878.79 1477.39,-878.79 1477.39,-878.79 1471.39,-878.79 1465.39,-872.79 1465.39,-866.79 1465.39,-866.79 1465.39,-644.79 1465.39,-644.79 1465.39,-638.79 1471.39,-632.79 1477.39,-632.79"/>
<text text-anchor="middle" x="1594.51" y="-861.49" font-family="Times,serif" font-size="14.00">Api::V1::ForumThreadCommentsController</text>
<polyline fill="none" stroke="black" points="1465.39,-854.29 1723.64,-854.29"/>
<text text-anchor="start" x="1473.39" y="-836.99" font-family="Times,serif" font-size="14.00">create</text>
<text text-anchor="start" x="1473.39" y="-820.49" font-family="Times,serif" font-size="14.00">destroy</text>
<text text-anchor="start" x="1473.39" y="-803.99" font-family="Times,serif" font-size="14.00">index</text>
<text text-anchor="start" x="1473.39" y="-787.49" font-family="Times,serif" font-size="14.00">show</text>
<text text-anchor="start" x="1473.39" y="-770.99" font-family="Times,serif" font-size="14.00">showCommentsForThread</text>
<text text-anchor="start" x="1473.39" y="-754.49" font-family="Times,serif" font-size="14.00">update</text>
<polyline fill="none" stroke="black" points="1465.39,-747.29 1723.64,-747.29"/>
<polyline fill="none" stroke="black" points="1465.39,-723.29 1723.64,-723.29"/>
<text text-anchor="start" x="1473.39" y="-705.99" font-family="Times,serif" font-size="14.00">_layout</text>
<text text-anchor="start" x="1473.39" y="-689.49" font-family="Times,serif" font-size="14.00">_layout_from_proc</text>
<text text-anchor="start" x="1473.39" y="-672.99" font-family="Times,serif" font-size="14.00">forumThreadComment_params</text>
<text text-anchor="start" x="1473.39" y="-656.49" font-family="Times,serif" font-size="14.00">get_commentsForCurrentThread</text>
<text text-anchor="start" x="1473.39" y="-639.99" font-family="Times,serif" font-size="14.00">set_forumThreadComment</text>
</g>
<!-- Api::V1::ForumThreadController -->
<g id="node4" class="node">
<title>Api::V1::ForumThreadController</title>
<path fill="none" stroke="black" d="M1080.34,-0.5C1080.34,-0.5 1254.59,-0.5 1254.59,-0.5 1260.59,-0.5 1266.59,-6.5 1266.59,-12.5 1266.59,-12.5 1266.59,-234.5 1266.59,-234.5 1266.59,-240.5 1260.59,-246.5 1254.59,-246.5 1254.59,-246.5 1080.34,-246.5 1080.34,-246.5 1074.34,-246.5 1068.34,-240.5 1068.34,-234.5 1068.34,-234.5 1068.34,-12.5 1068.34,-12.5 1068.34,-6.5 1074.34,-0.5 1080.34,-0.5"/>
<text text-anchor="middle" x="1167.47" y="-229.2" font-family="Times,serif" font-size="14.00">Api::V1::ForumThreadController</text>
<polyline fill="none" stroke="black" points="1068.34,-222 1266.59,-222"/>
<text text-anchor="start" x="1076.34" y="-204.7" font-family="Times,serif" font-size="14.00">create</text>
<text text-anchor="start" x="1076.34" y="-188.2" font-family="Times,serif" font-size="14.00">destroy</text>
<text text-anchor="start" x="1076.34" y="-171.7" font-family="Times,serif" font-size="14.00">index</text>
<text text-anchor="start" x="1076.34" y="-155.2" font-family="Times,serif" font-size="14.00">show</text>
<text text-anchor="start" x="1076.34" y="-138.7" font-family="Times,serif" font-size="14.00">showForumThreadsByCategory</text>
<text text-anchor="start" x="1076.34" y="-122.2" font-family="Times,serif" font-size="14.00">update</text>
<polyline fill="none" stroke="black" points="1068.34,-115 1266.59,-115"/>
<polyline fill="none" stroke="black" points="1068.34,-91 1266.59,-91"/>
<text text-anchor="start" x="1076.34" y="-73.7" font-family="Times,serif" font-size="14.00">_layout</text>
<text text-anchor="start" x="1076.34" y="-57.2" font-family="Times,serif" font-size="14.00">_layout_from_proc</text>
<text text-anchor="start" x="1076.34" y="-40.7" font-family="Times,serif" font-size="14.00">forumThread_params</text>
<text text-anchor="start" x="1076.34" y="-24.2" font-family="Times,serif" font-size="14.00">get_forumThreadsByCategory</text>
<text text-anchor="start" x="1076.34" y="-7.7" font-family="Times,serif" font-size="14.00">set_forumThread</text>
</g>
<!-- Api::V1::UsersController -->
<g id="node5" class="node">
<title>Api::V1::UsersController</title>
<path fill="none" stroke="black" d="M446.36,-1372.76C446.36,-1372.76 576.36,-1372.76 576.36,-1372.76 582.36,-1372.76 588.36,-1378.76 588.36,-1384.76 588.36,-1384.76 588.36,-1606.76 588.36,-1606.76 588.36,-1612.76 582.36,-1618.76 576.36,-1618.76 576.36,-1618.76 446.36,-1618.76 446.36,-1618.76 440.36,-1618.76 434.36,-1612.76 434.36,-1606.76 434.36,-1606.76 434.36,-1384.76 434.36,-1384.76 434.36,-1378.76 440.36,-1372.76 446.36,-1372.76"/>
<text text-anchor="middle" x="511.36" y="-1601.46" font-family="Times,serif" font-size="14.00">Api::V1::UsersController</text>
<polyline fill="none" stroke="black" points="434.36,-1594.26 588.36,-1594.26"/>
<text text-anchor="start" x="442.36" y="-1576.96" font-family="Times,serif" font-size="14.00">create</text>
<text text-anchor="start" x="442.36" y="-1560.46" font-family="Times,serif" font-size="14.00">destroy</text>
<text text-anchor="start" x="442.36" y="-1543.96" font-family="Times,serif" font-size="14.00">index</text>
<text text-anchor="start" x="442.36" y="-1527.46" font-family="Times,serif" font-size="14.00">logout</text>
<text text-anchor="start" x="442.36" y="-1510.96" font-family="Times,serif" font-size="14.00">me</text>
<text text-anchor="start" x="442.36" y="-1494.46" font-family="Times,serif" font-size="14.00">show</text>
<text text-anchor="start" x="442.36" y="-1477.96" font-family="Times,serif" font-size="14.00">update</text>
<polyline fill="none" stroke="black" points="434.36,-1470.76 588.36,-1470.76"/>
<polyline fill="none" stroke="black" points="434.36,-1446.76 588.36,-1446.76"/>
<text text-anchor="start" x="442.36" y="-1429.46" font-family="Times,serif" font-size="14.00">_layout</text>
<text text-anchor="start" x="442.36" y="-1412.96" font-family="Times,serif" font-size="14.00">_layout_from_proc</text>
<text text-anchor="start" x="442.36" y="-1396.46" font-family="Times,serif" font-size="14.00">set_user</text>
<text text-anchor="start" x="442.36" y="-1379.96" font-family="Times,serif" font-size="14.00">user_params</text>
</g>
<!-- ApplicationController -->
<g id="node6" class="node">
<title>ApplicationController</title>
<path fill="none" stroke="black" d="M779.85,-725.39C779.85,-725.39 891.1,-725.39 891.1,-725.39 897.1,-725.39 903.1,-731.39 903.1,-737.39 903.1,-737.39 903.1,-876.89 903.1,-876.89 903.1,-882.89 897.1,-888.89 891.1,-888.89 891.1,-888.89 779.85,-888.89 779.85,-888.89 773.85,-888.89 767.85,-882.89 767.85,-876.89 767.85,-876.89 767.85,-737.39 767.85,-737.39 767.85,-731.39 773.85,-725.39 779.85,-725.39"/>
<text text-anchor="middle" x="835.48" y="-871.59" font-family="Times,serif" font-size="14.00">ApplicationController</text>
<polyline fill="none" stroke="black" points="767.85,-864.39 903.1,-864.39"/>
<text text-anchor="start" x="775.85" y="-847.09" font-family="Times,serif" font-size="14.00">authorized</text>
<text text-anchor="start" x="775.85" y="-830.59" font-family="Times,serif" font-size="14.00">current_user</text>
<text text-anchor="start" x="775.85" y="-814.09" font-family="Times,serif" font-size="14.00">decoded_token</text>
<text text-anchor="start" x="775.85" y="-797.59" font-family="Times,serif" font-size="14.00">encode_token</text>
<polyline fill="none" stroke="black" points="767.85,-790.39 903.1,-790.39"/>
<polyline fill="none" stroke="black" points="767.85,-766.39 903.1,-766.39"/>
<text text-anchor="start" x="775.85" y="-749.09" font-family="Times,serif" font-size="14.00">_layout</text>
<text text-anchor="start" x="775.85" y="-732.59" font-family="Times,serif" font-size="14.00">_layout_from_proc</text>
</g>
<!-- ApplicationController&#45;&gt;Api::V1::AuthController -->
<g id="edge1" class="edge">
<title>ApplicationController&#45;&gt;Api::V1::AuthController</title>
<path fill="none" stroke="black" d="M767.57,-812.97C626.99,-825.03 304.82,-852.69 155.89,-865.47"/>
</g>
<!-- ApplicationController&#45;&gt;Api::V1::ForumThreadCommentsController -->
<g id="edge2" class="edge">
<title>ApplicationController&#45;&gt;Api::V1::ForumThreadCommentsController</title>
<path fill="none" stroke="black" d="M903.5,-802.53C1029.86,-793.99 1302.68,-775.53 1465.17,-764.54"/>
</g>
<!-- ApplicationController&#45;&gt;Api::V1::ForumThreadController -->
<g id="edge3" class="edge">
<title>ApplicationController&#45;&gt;Api::V1::ForumThreadController</title>
<path fill="none" stroke="black" d="M875.36,-725.01C933.07,-606.17 1040.32,-385.33 1107.57,-246.85"/>
</g>
<!-- ApplicationController&#45;&gt;Api::V1::UsersController -->
<g id="edge4" class="edge">
<title>ApplicationController&#45;&gt;Api::V1::UsersController</title>
<path fill="none" stroke="black" d="M796.86,-889.18C740.46,-1009.01 635.13,-1232.79 569.39,-1372.49"/>
</g>
<!-- HomepageController -->
<g id="node7" class="node">
<title>HomepageController</title>
<path fill="none" stroke="black" d="M1209.68,-1379.59C1209.68,-1379.59 1316.43,-1379.59 1316.43,-1379.59 1322.43,-1379.59 1328.43,-1385.59 1328.43,-1391.59 1328.43,-1391.59 1328.43,-1481.59 1328.43,-1481.59 1328.43,-1487.59 1322.43,-1493.59 1316.43,-1493.59 1316.43,-1493.59 1209.68,-1493.59 1209.68,-1493.59 1203.68,-1493.59 1197.68,-1487.59 1197.68,-1481.59 1197.68,-1481.59 1197.68,-1391.59 1197.68,-1391.59 1197.68,-1385.59 1203.68,-1379.59 1209.68,-1379.59"/>
<text text-anchor="middle" x="1263.06" y="-1476.29" font-family="Times,serif" font-size="14.00">HomepageController</text>
<polyline fill="none" stroke="black" points="1197.68,-1469.09 1328.43,-1469.09"/>
<text text-anchor="start" x="1205.68" y="-1451.79" font-family="Times,serif" font-size="14.00">index</text>
<polyline fill="none" stroke="black" points="1197.68,-1444.59 1328.43,-1444.59"/>
<polyline fill="none" stroke="black" points="1197.68,-1420.59 1328.43,-1420.59"/>
<text text-anchor="start" x="1205.68" y="-1403.29" font-family="Times,serif" font-size="14.00">_layout</text>
<text text-anchor="start" x="1205.68" y="-1386.79" font-family="Times,serif" font-size="14.00">_layout_from_proc</text>
</g>
<!-- ApplicationController&#45;&gt;HomepageController -->
<g id="edge5" class="edge">
<title>ApplicationController&#45;&gt;HomepageController</title>
<path fill="none" stroke="black" d="M891.16,-889.1C979.13,-1018.62 1148.1,-1267.36 1224.21,-1379.4"/>
</g>
<!-- UsersController -->
<g id="node8" class="node">
<title>UsersController</title>
<path fill="none" stroke="black" d="M355.47,-108.3C355.47,-108.3 452.47,-108.3 452.47,-108.3 458.47,-108.3 464.47,-114.3 464.47,-120.3 464.47,-120.3 464.47,-243.3 464.47,-243.3 464.47,-249.3 458.47,-255.3 452.47,-255.3 452.47,-255.3 355.47,-255.3 355.47,-255.3 349.47,-255.3 343.47,-249.3 343.47,-243.3 343.47,-243.3 343.47,-120.3 343.47,-120.3 343.47,-114.3 349.47,-108.3 355.47,-108.3"/>
<text text-anchor="middle" x="403.97" y="-238" font-family="Times,serif" font-size="14.00">UsersController</text>
<polyline fill="none" stroke="black" points="343.47,-230.8 464.47,-230.8"/>
<text text-anchor="start" x="351.47" y="-213.5" font-family="Times,serif" font-size="14.00">index</text>
<text text-anchor="start" x="351.47" y="-197" font-family="Times,serif" font-size="14.00">login</text>
<text text-anchor="start" x="351.47" y="-180.5" font-family="Times,serif" font-size="14.00">token_authenticate</text>
<polyline fill="none" stroke="black" points="343.47,-173.3 464.47,-173.3"/>
<polyline fill="none" stroke="black" points="343.47,-149.3 464.47,-149.3"/>
<text text-anchor="start" x="351.47" y="-132" font-family="Times,serif" font-size="14.00">_layout</text>
<text text-anchor="start" x="351.47" y="-115.5" font-family="Times,serif" font-size="14.00">_layout_from_proc</text>
</g>
<!-- ApplicationController&#45;&gt;UsersController -->
<g id="edge6" class="edge">
<title>ApplicationController&#45;&gt;UsersController</title>
<path fill="none" stroke="black" d="M778.84,-725.06C694.24,-602.46 536.14,-373.35 454.96,-255.69"/>
</g>
<!-- ActiveStorage::BaseController -->
<g id="node9" class="node">
<title>ActiveStorage::BaseController</title>
<path fill="none" stroke="black" d="M276,-1100.5C276,-1100.5 434.5,-1100.5 434.5,-1100.5 440.5,-1100.5 446.5,-1106.5 446.5,-1112.5 446.5,-1112.5 446.5,-1202 446.5,-1202 446.5,-1208 440.5,-1214 434.5,-1214 434.5,-1214 276,-1214 276,-1214 270,-1214 264,-1208 264,-1202 264,-1202 264,-1112.5 264,-1112.5 264,-1106.5 270,-1100.5 276,-1100.5"/>
<text text-anchor="middle" x="355.25" y="-1196.7" font-family="Times,serif" font-size="14.00">ActiveStorage::BaseController</text>
<polyline fill="none" stroke="black" points="264,-1189.5 446.5,-1189.5"/>
<polyline fill="none" stroke="black" points="264,-1165.5 446.5,-1165.5"/>
<polyline fill="none" stroke="black" points="264,-1141.5 446.5,-1141.5"/>
<text text-anchor="start" x="272" y="-1124.2" font-family="Times,serif" font-size="14.00">_layout</text>
<text text-anchor="start" x="272" y="-1107.7" font-family="Times,serif" font-size="14.00">_layout_from_proc</text>
</g>
<!-- ActiveStorage::Blobs::ProxyController -->
<g id="node10" class="node">
<title>ActiveStorage::Blobs::ProxyController</title>
<path fill="none" stroke="black" d="M1200,-220.5C1200,-220.5 1403.5,-220.5 1403.5,-220.5 1409.5,-220.5 1415.5,-226.5 1415.5,-232.5 1415.5,-232.5 1415.5,-322.5 1415.5,-322.5 1415.5,-328.5 1409.5,-334.5 1403.5,-334.5 1403.5,-334.5 1200,-334.5 1200,-334.5 1194,-334.5 1188,-328.5 1188,-322.5 1188,-322.5 1188,-232.5 1188,-232.5 1188,-226.5 1194,-220.5 1200,-220.5"/>
<text text-anchor="middle" x="1301.75" y="-317.2" font-family="Times,serif" font-size="14.00">ActiveStorage::Blobs::ProxyController</text>
<polyline fill="none" stroke="black" points="1188,-310 1415.5,-310"/>
<text text-anchor="start" x="1196" y="-292.7" font-family="Times,serif" font-size="14.00">show</text>
<polyline fill="none" stroke="black" points="1188,-285.5 1415.5,-285.5"/>
<polyline fill="none" stroke="black" points="1188,-261.5 1415.5,-261.5"/>
<text text-anchor="start" x="1196" y="-244.2" font-family="Times,serif" font-size="14.00">_layout</text>
<text text-anchor="start" x="1196" y="-227.7" font-family="Times,serif" font-size="14.00">_layout_from_proc</text>
</g>
<!-- ActiveStorage::Blobs::RedirectController -->
<g id="node11" class="node">
<title>ActiveStorage::Blobs::RedirectController</title>
<path fill="none" stroke="black" d="M892,-220.5C892,-220.5 1109,-220.5 1109,-220.5 1115,-220.5 1121,-226.5 1121,-232.5 1121,-232.5 1121,-322.5 1121,-322.5 1121,-328.5 1115,-334.5 1109,-334.5 1109,-334.5 892,-334.5 892,-334.5 886,-334.5 880,-328.5 880,-322.5 880,-322.5 880,-232.5 880,-232.5 880,-226.5 886,-220.5 892,-220.5"/>
<text text-anchor="middle" x="1000.5" y="-317.2" font-family="Times,serif" font-size="14.00">ActiveStorage::Blobs::RedirectController</text>
<polyline fill="none" stroke="black" points="880,-310 1121,-310"/>
<text text-anchor="start" x="888" y="-292.7" font-family="Times,serif" font-size="14.00">show</text>
<polyline fill="none" stroke="black" points="880,-285.5 1121,-285.5"/>
<polyline fill="none" stroke="black" points="880,-261.5 1121,-261.5"/>
<text text-anchor="start" x="888" y="-244.2" font-family="Times,serif" font-size="14.00">_layout</text>
<text text-anchor="start" x="888" y="-227.7" font-family="Times,serif" font-size="14.00">_layout_from_proc</text>
</g>
<!-- ActiveStorage::DirectUploadsController -->
<g id="node12" class="node">
<title>ActiveStorage::DirectUploadsController</title>
<path fill="none" stroke="black" d="M892,-1320.5C892,-1320.5 1103,-1320.5 1103,-1320.5 1109,-1320.5 1115,-1326.5 1115,-1332.5 1115,-1332.5 1115,-1455.5 1115,-1455.5 1115,-1461.5 1109,-1467.5 1103,-1467.5 1103,-1467.5 892,-1467.5 892,-1467.5 886,-1467.5 880,-1461.5 880,-1455.5 880,-1455.5 880,-1332.5 880,-1332.5 880,-1326.5 886,-1320.5 892,-1320.5"/>
<text text-anchor="middle" x="997.5" y="-1450.2" font-family="Times,serif" font-size="14.00">ActiveStorage::DirectUploadsController</text>
<polyline fill="none" stroke="black" points="880,-1443 1115,-1443"/>
<text text-anchor="start" x="888" y="-1425.7" font-family="Times,serif" font-size="14.00">create</text>
<polyline fill="none" stroke="black" points="880,-1418.5 1115,-1418.5"/>
<polyline fill="none" stroke="black" points="880,-1394.5 1115,-1394.5"/>
<text text-anchor="start" x="888" y="-1377.2" font-family="Times,serif" font-size="14.00">_layout</text>
<text text-anchor="start" x="888" y="-1360.7" font-family="Times,serif" font-size="14.00">_layout_from_proc</text>
<text text-anchor="start" x="888" y="-1344.2" font-family="Times,serif" font-size="14.00">blob_args</text>
<text text-anchor="start" x="888" y="-1327.7" font-family="Times,serif" font-size="14.00">direct_upload_json</text>
</g>
<!-- ActiveStorage::DiskController -->
<g id="node13" class="node">
<title>ActiveStorage::DiskController</title>
<path fill="none" stroke="black" d="M364,-308.5C364,-308.5 521.75,-308.5 521.75,-308.5 527.75,-308.5 533.75,-314.5 533.75,-320.5 533.75,-320.5 533.75,-493 533.75,-493 533.75,-499 527.75,-505 521.75,-505 521.75,-505 364,-505 364,-505 358,-505 352,-499 352,-493 352,-493 352,-320.5 352,-320.5 352,-314.5 358,-308.5 364,-308.5"/>
<text text-anchor="middle" x="442.88" y="-487.7" font-family="Times,serif" font-size="14.00">ActiveStorage::DiskController</text>
<polyline fill="none" stroke="black" points="352,-480.5 533.75,-480.5"/>
<text text-anchor="start" x="360" y="-463.2" font-family="Times,serif" font-size="14.00">show</text>
<text text-anchor="start" x="360" y="-446.7" font-family="Times,serif" font-size="14.00">update</text>
<polyline fill="none" stroke="black" points="352,-439.5 533.75,-439.5"/>
<polyline fill="none" stroke="black" points="352,-415.5 533.75,-415.5"/>
<text text-anchor="start" x="360" y="-398.2" font-family="Times,serif" font-size="14.00">_layout</text>
<text text-anchor="start" x="360" y="-381.7" font-family="Times,serif" font-size="14.00">_layout_from_proc</text>
<text text-anchor="start" x="360" y="-365.2" font-family="Times,serif" font-size="14.00">acceptable_content?</text>
<text text-anchor="start" x="360" y="-348.7" font-family="Times,serif" font-size="14.00">decode_verified_key</text>
<text text-anchor="start" x="360" y="-332.2" font-family="Times,serif" font-size="14.00">decode_verified_token</text>
<text text-anchor="start" x="360" y="-315.7" font-family="Times,serif" font-size="14.00">named_disk_service</text>
</g>
<!-- ActiveStorage::Representations::BaseController -->
<g id="node14" class="node">
<title>ActiveStorage::Representations::BaseController</title>
<path fill="none" stroke="black" d="M540,-924.5C540,-924.5 792.25,-924.5 792.25,-924.5 798.25,-924.5 804.25,-930.5 804.25,-936.5 804.25,-936.5 804.25,-1059 804.25,-1059 804.25,-1065 798.25,-1071 792.25,-1071 792.25,-1071 540,-1071 540,-1071 534,-1071 528,-1065 528,-1059 528,-1059 528,-936.5 528,-936.5 528,-930.5 534,-924.5 540,-924.5"/>
<text text-anchor="middle" x="666.12" y="-1053.7" font-family="Times,serif" font-size="14.00">ActiveStorage::Representations::BaseController</text>
<polyline fill="none" stroke="black" points="528,-1046.5 804.25,-1046.5"/>
<polyline fill="none" stroke="black" points="528,-1022.5 804.25,-1022.5"/>
<polyline fill="none" stroke="black" points="528,-998.5 804.25,-998.5"/>
<text text-anchor="start" x="536" y="-981.2" font-family="Times,serif" font-size="14.00">_layout</text>
<text text-anchor="start" x="536" y="-964.7" font-family="Times,serif" font-size="14.00">_layout_from_proc</text>
<text text-anchor="start" x="536" y="-948.2" font-family="Times,serif" font-size="14.00">blob_scope</text>
<text text-anchor="start" x="536" y="-931.7" font-family="Times,serif" font-size="14.00">set_representation</text>
</g>
<!-- ActiveStorage::Representations::ProxyController -->
<g id="node15" class="node">
<title>ActiveStorage::Representations::ProxyController</title>
<path fill="none" stroke="black" d="M1464,-1408.5C1464,-1408.5 1722.25,-1408.5 1722.25,-1408.5 1728.25,-1408.5 1734.25,-1414.5 1734.25,-1420.5 1734.25,-1420.5 1734.25,-1510.5 1734.25,-1510.5 1734.25,-1516.5 1728.25,-1522.5 1722.25,-1522.5 1722.25,-1522.5 1464,-1522.5 1464,-1522.5 1458,-1522.5 1452,-1516.5 1452,-1510.5 1452,-1510.5 1452,-1420.5 1452,-1420.5 1452,-1414.5 1458,-1408.5 1464,-1408.5"/>
<text text-anchor="middle" x="1593.12" y="-1505.2" font-family="Times,serif" font-size="14.00">ActiveStorage::Representations::ProxyController</text>
<polyline fill="none" stroke="black" points="1452,-1498 1734.25,-1498"/>
<text text-anchor="start" x="1460" y="-1480.7" font-family="Times,serif" font-size="14.00">show</text>
<polyline fill="none" stroke="black" points="1452,-1473.5 1734.25,-1473.5"/>
<polyline fill="none" stroke="black" points="1452,-1449.5 1734.25,-1449.5"/>
<text text-anchor="start" x="1460" y="-1432.2" font-family="Times,serif" font-size="14.00">_layout</text>
<text text-anchor="start" x="1460" y="-1415.7" font-family="Times,serif" font-size="14.00">_layout_from_proc</text>
</g>
<!-- ActiveStorage::Representations::RedirectController -->
<g id="node16" class="node">
<title>ActiveStorage::Representations::RedirectController</title>
<path fill="none" stroke="black" d="M496,-572.5C496,-572.5 767.75,-572.5 767.75,-572.5 773.75,-572.5 779.75,-578.5 779.75,-584.5 779.75,-584.5 779.75,-674.5 779.75,-674.5 779.75,-680.5 773.75,-686.5 767.75,-686.5 767.75,-686.5 496,-686.5 496,-686.5 490,-686.5 484,-680.5 484,-674.5 484,-674.5 484,-584.5 484,-584.5 484,-578.5 490,-572.5 496,-572.5"/>
<text text-anchor="middle" x="631.88" y="-669.2" font-family="Times,serif" font-size="14.00">ActiveStorage::Representations::RedirectController</text>
<polyline fill="none" stroke="black" points="484,-662 779.75,-662"/>
<text text-anchor="start" x="492" y="-644.7" font-family="Times,serif" font-size="14.00">show</text>
<polyline fill="none" stroke="black" points="484,-637.5 779.75,-637.5"/>
<polyline fill="none" stroke="black" points="484,-613.5 779.75,-613.5"/>
<text text-anchor="start" x="492" y="-596.2" font-family="Times,serif" font-size="14.00">_layout</text>
<text text-anchor="start" x="492" y="-579.7" font-family="Times,serif" font-size="14.00">_layout_from_proc</text>
</g>
<!-- ActionMailbox::BaseController -->
<g id="node17" class="node">
<title>ActionMailbox::BaseController</title>
<path fill="none" stroke="black" d="M628,-308.5C628,-308.5 792.5,-308.5 792.5,-308.5 798.5,-308.5 804.5,-314.5 804.5,-320.5 804.5,-320.5 804.5,-476 804.5,-476 804.5,-482 798.5,-488 792.5,-488 792.5,-488 628,-488 628,-488 622,-488 616,-482 616,-476 616,-476 616,-320.5 616,-320.5 616,-314.5 622,-308.5 628,-308.5"/>
<text text-anchor="middle" x="710.25" y="-470.7" font-family="Times,serif" font-size="14.00">ActionMailbox::BaseController</text>
<polyline fill="none" stroke="black" points="616,-463.5 804.5,-463.5"/>
<polyline fill="none" stroke="black" points="616,-439.5 804.5,-439.5"/>
<polyline fill="none" stroke="black" points="616,-415.5 804.5,-415.5"/>
<text text-anchor="start" x="624" y="-398.2" font-family="Times,serif" font-size="14.00">_layout</text>
<text text-anchor="start" x="624" y="-381.7" font-family="Times,serif" font-size="14.00">_layout_from_proc</text>
<text text-anchor="start" x="624" y="-365.2" font-family="Times,serif" font-size="14.00">authenticate_by_password</text>
<text text-anchor="start" x="624" y="-348.7" font-family="Times,serif" font-size="14.00">ensure_configured</text>
<text text-anchor="start" x="624" y="-332.2" font-family="Times,serif" font-size="14.00">ingress_name</text>
<text text-anchor="start" x="624" y="-315.7" font-family="Times,serif" font-size="14.00">password</text>
</g>
<!-- ActionMailbox::Ingresses::Mailgun::InboundEmailsController -->
<g id="node18" class="node">
<title>ActionMailbox::Ingresses::Mailgun::InboundEmailsController</title>
<path fill="none" stroke="black" d="M892,-572.5C892,-572.5 1225.25,-572.5 1225.25,-572.5 1231.25,-572.5 1237.25,-578.5 1237.25,-584.5 1237.25,-584.5 1237.25,-740.5 1237.25,-740.5 1237.25,-746.5 1231.25,-752.5 1225.25,-752.5 1225.25,-752.5 892,-752.5 892,-752.5 886,-752.5 880,-746.5 880,-740.5 880,-740.5 880,-584.5 880,-584.5 880,-578.5 886,-572.5 892,-572.5"/>
<text text-anchor="middle" x="1058.62" y="-735.2" font-family="Times,serif" font-size="14.00">ActionMailbox::Ingresses::Mailgun::InboundEmailsController</text>
<polyline fill="none" stroke="black" points="880,-728 1237.25,-728"/>
<text text-anchor="start" x="888" y="-710.7" font-family="Times,serif" font-size="14.00">create</text>
<polyline fill="none" stroke="black" points="880,-703.5 1237.25,-703.5"/>
<polyline fill="none" stroke="black" points="880,-679.5 1237.25,-679.5"/>
<text text-anchor="start" x="888" y="-662.2" font-family="Times,serif" font-size="14.00">_layout</text>
<text text-anchor="start" x="888" y="-645.7" font-family="Times,serif" font-size="14.00">_layout_from_proc</text>
<text text-anchor="start" x="888" y="-629.2" font-family="Times,serif" font-size="14.00">authenticate</text>
<text text-anchor="start" x="888" y="-612.7" font-family="Times,serif" font-size="14.00">authenticated?</text>
<text text-anchor="start" x="888" y="-596.2" font-family="Times,serif" font-size="14.00">key</text>
<text text-anchor="start" x="888" y="-579.7" font-family="Times,serif" font-size="14.00">mail</text>
</g>
<!-- ActionMailbox::Ingresses::Mandrill::InboundEmailsController -->
<g id="node19" class="node">
<title>ActionMailbox::Ingresses::Mandrill::InboundEmailsController</title>
<path fill="none" stroke="black" d="M892,-836.5C892,-836.5 1226.75,-836.5 1226.75,-836.5 1232.75,-836.5 1238.75,-842.5 1238.75,-848.5 1238.75,-848.5 1238.75,-1037.5 1238.75,-1037.5 1238.75,-1043.5 1232.75,-1049.5 1226.75,-1049.5 1226.75,-1049.5 892,-1049.5 892,-1049.5 886,-1049.5 880,-1043.5 880,-1037.5 880,-1037.5 880,-848.5 880,-848.5 880,-842.5 886,-836.5 892,-836.5"/>
<text text-anchor="middle" x="1059.38" y="-1032.2" font-family="Times,serif" font-size="14.00">ActionMailbox::Ingresses::Mandrill::InboundEmailsController</text>
<polyline fill="none" stroke="black" points="880,-1025 1238.75,-1025"/>
<text text-anchor="start" x="888" y="-1007.7" font-family="Times,serif" font-size="14.00">create</text>
<text text-anchor="start" x="888" y="-991.2" font-family="Times,serif" font-size="14.00">health_check</text>
<polyline fill="none" stroke="black" points="880,-984 1238.75,-984"/>
<polyline fill="none" stroke="black" points="880,-960 1238.75,-960"/>
<text text-anchor="start" x="888" y="-942.7" font-family="Times,serif" font-size="14.00">_layout</text>
<text text-anchor="start" x="888" y="-926.2" font-family="Times,serif" font-size="14.00">_layout_from_proc</text>
<text text-anchor="start" x="888" y="-909.7" font-family="Times,serif" font-size="14.00">authenticate</text>
<text text-anchor="start" x="888" y="-893.2" font-family="Times,serif" font-size="14.00">authenticated?</text>
<text text-anchor="start" x="888" y="-876.7" font-family="Times,serif" font-size="14.00">events</text>
<text text-anchor="start" x="888" y="-860.2" font-family="Times,serif" font-size="14.00">key</text>
<text text-anchor="start" x="888" y="-843.7" font-family="Times,serif" font-size="14.00">raw_emails</text>
</g>
<!-- ActionMailbox::Ingresses::Postmark::InboundEmailsController -->
<g id="node20" class="node">
<title>ActionMailbox::Ingresses::Postmark::InboundEmailsController</title>
<path fill="none" stroke="black" d="M892,-396.5C892,-396.5 1230.5,-396.5 1230.5,-396.5 1236.5,-396.5 1242.5,-402.5 1242.5,-408.5 1242.5,-408.5 1242.5,-498.5 1242.5,-498.5 1242.5,-504.5 1236.5,-510.5 1230.5,-510.5 1230.5,-510.5 892,-510.5 892,-510.5 886,-510.5 880,-504.5 880,-498.5 880,-498.5 880,-408.5 880,-408.5 880,-402.5 886,-396.5 892,-396.5"/>
<text text-anchor="middle" x="1061.25" y="-493.2" font-family="Times,serif" font-size="14.00">ActionMailbox::Ingresses::Postmark::InboundEmailsController</text>
<polyline fill="none" stroke="black" points="880,-486 1242.5,-486"/>
<text text-anchor="start" x="888" y="-468.7" font-family="Times,serif" font-size="14.00">create</text>
<polyline fill="none" stroke="black" points="880,-461.5 1242.5,-461.5"/>
<polyline fill="none" stroke="black" points="880,-437.5 1242.5,-437.5"/>
<text text-anchor="start" x="888" y="-420.2" font-family="Times,serif" font-size="14.00">_layout</text>
<text text-anchor="start" x="888" y="-403.7" font-family="Times,serif" font-size="14.00">_layout_from_proc</text>
</g>
<!-- ActionMailbox::Ingresses::Relay::InboundEmailsController -->
<g id="node21" class="node">
<title>ActionMailbox::Ingresses::Relay::InboundEmailsController</title>
<path fill="none" stroke="black" d="M1332,-396.5C1332,-396.5 1650.25,-396.5 1650.25,-396.5 1656.25,-396.5 1662.25,-402.5 1662.25,-408.5 1662.25,-408.5 1662.25,-515 1662.25,-515 1662.25,-521 1656.25,-527 1650.25,-527 1650.25,-527 1332,-527 1332,-527 1326,-527 1320,-521 1320,-515 1320,-515 1320,-408.5 1320,-408.5 1320,-402.5 1326,-396.5 1332,-396.5"/>
<text text-anchor="middle" x="1491.12" y="-509.7" font-family="Times,serif" font-size="14.00">ActionMailbox::Ingresses::Relay::InboundEmailsController</text>
<polyline fill="none" stroke="black" points="1320,-502.5 1662.25,-502.5"/>
<text text-anchor="start" x="1328" y="-485.2" font-family="Times,serif" font-size="14.00">create</text>
<polyline fill="none" stroke="black" points="1320,-478 1662.25,-478"/>
<polyline fill="none" stroke="black" points="1320,-454 1662.25,-454"/>
<text text-anchor="start" x="1328" y="-436.7" font-family="Times,serif" font-size="14.00">_layout</text>
<text text-anchor="start" x="1328" y="-420.2" font-family="Times,serif" font-size="14.00">_layout_from_proc</text>
<text text-anchor="start" x="1328" y="-403.7" font-family="Times,serif" font-size="14.00">require_valid_rfc822_message</text>
</g>
<!-- ActionMailbox::Ingresses::Sendgrid::InboundEmailsController -->
<g id="node22" class="node">
<title>ActionMailbox::Ingresses::Sendgrid::InboundEmailsController</title>
<path fill="none" stroke="black" d="M1332,-616.5C1332,-616.5 1667.5,-616.5 1667.5,-616.5 1673.5,-616.5 1679.5,-622.5 1679.5,-628.5 1679.5,-628.5 1679.5,-751.5 1679.5,-751.5 1679.5,-757.5 1673.5,-763.5 1667.5,-763.5 1667.5,-763.5 1332,-763.5 1332,-763.5 1326,-763.5 1320,-757.5 1320,-751.5 1320,-751.5 1320,-628.5 1320,-628.5 1320,-622.5 1326,-616.5 1332,-616.5"/>
<text text-anchor="middle" x="1499.75" y="-746.2" font-family="Times,serif" font-size="14.00">ActionMailbox::Ingresses::Sendgrid::InboundEmailsController</text>
<polyline fill="none" stroke="black" points="1320,-739 1679.5,-739"/>
<text text-anchor="start" x="1328" y="-721.7" font-family="Times,serif" font-size="14.00">create</text>
<polyline fill="none" stroke="black" points="1320,-714.5 1679.5,-714.5"/>
<polyline fill="none" stroke="black" points="1320,-690.5 1679.5,-690.5"/>
<text text-anchor="start" x="1328" y="-673.2" font-family="Times,serif" font-size="14.00">_layout</text>
<text text-anchor="start" x="1328" y="-656.7" font-family="Times,serif" font-size="14.00">_layout_from_proc</text>
<text text-anchor="start" x="1328" y="-640.2" font-family="Times,serif" font-size="14.00">envelope</text>
<text text-anchor="start" x="1328" y="-623.7" font-family="Times,serif" font-size="14.00">mail</text>
</g>
<!-- Rails::Conductor::ActionMailbox::InboundEmails::SourcesController -->
<g id="node23" class="node">
<title>Rails::Conductor::ActionMailbox::InboundEmails::SourcesController</title>
<path fill="none" stroke="black" d="M760,-1144.5C760,-1144.5 1131.5,-1144.5 1131.5,-1144.5 1137.5,-1144.5 1143.5,-1150.5 1143.5,-1156.5 1143.5,-1156.5 1143.5,-1246.5 1143.5,-1246.5 1143.5,-1252.5 1137.5,-1258.5 1131.5,-1258.5 1131.5,-1258.5 760,-1258.5 760,-1258.5 754,-1258.5 748,-1252.5 748,-1246.5 748,-1246.5 748,-1156.5 748,-1156.5 748,-1150.5 754,-1144.5 760,-1144.5"/>
<text text-anchor="middle" x="945.75" y="-1241.2" font-family="Times,serif" font-size="14.00">Rails::Conductor::ActionMailbox::InboundEmails::SourcesController</text>
<polyline fill="none" stroke="black" points="748,-1234 1143.5,-1234"/>
<text text-anchor="start" x="756" y="-1216.7" font-family="Times,serif" font-size="14.00">create</text>
<text text-anchor="start" x="756" y="-1200.2" font-family="Times,serif" font-size="14.00">new</text>
<polyline fill="none" stroke="black" points="748,-1193 1143.5,-1193"/>
<polyline fill="none" stroke="black" points="748,-1169 1143.5,-1169"/>
<text text-anchor="start" x="756" y="-1151.7" font-family="Times,serif" font-size="14.00">_layout</text>
</g>
<!-- Rails::Conductor::ActionMailbox::InboundEmailsController -->
<g id="node24" class="node">
<title>Rails::Conductor::ActionMailbox::InboundEmailsController</title>
<path fill="none" stroke="black" d="M1200,-1144.5C1200,-1144.5 1521.25,-1144.5 1521.25,-1144.5 1527.25,-1144.5 1533.25,-1150.5 1533.25,-1156.5 1533.25,-1156.5 1533.25,-1329 1533.25,-1329 1533.25,-1335 1527.25,-1341 1521.25,-1341 1521.25,-1341 1200,-1341 1200,-1341 1194,-1341 1188,-1335 1188,-1329 1188,-1329 1188,-1156.5 1188,-1156.5 1188,-1150.5 1194,-1144.5 1200,-1144.5"/>
<text text-anchor="middle" x="1360.62" y="-1323.7" font-family="Times,serif" font-size="14.00">Rails::Conductor::ActionMailbox::InboundEmailsController</text>
<polyline fill="none" stroke="black" points="1188,-1316.5 1533.25,-1316.5"/>
<text text-anchor="start" x="1196" y="-1299.2" font-family="Times,serif" font-size="14.00">create</text>
<text text-anchor="start" x="1196" y="-1282.7" font-family="Times,serif" font-size="14.00">index</text>
<text text-anchor="start" x="1196" y="-1266.2" font-family="Times,serif" font-size="14.00">new</text>
<text text-anchor="start" x="1196" y="-1249.7" font-family="Times,serif" font-size="14.00">show</text>
<polyline fill="none" stroke="black" points="1188,-1242.5 1533.25,-1242.5"/>
<polyline fill="none" stroke="black" points="1188,-1218.5 1533.25,-1218.5"/>
<text text-anchor="start" x="1196" y="-1201.2" font-family="Times,serif" font-size="14.00">_layout</text>
<text text-anchor="start" x="1196" y="-1184.7" font-family="Times,serif" font-size="14.00">create_inbound_email</text>
<text text-anchor="start" x="1196" y="-1168.2" font-family="Times,serif" font-size="14.00">mail_params</text>
<text text-anchor="start" x="1196" y="-1151.7" font-family="Times,serif" font-size="14.00">new_mail</text>
</g>
<!-- Rails::Conductor::ActionMailbox::IncineratesController -->
<g id="node25" class="node">
<title>Rails::Conductor::ActionMailbox::IncineratesController</title>
<path fill="none" stroke="black" d="M496,-748.5C496,-748.5 793.25,-748.5 793.25,-748.5 799.25,-748.5 805.25,-754.5 805.25,-760.5 805.25,-760.5 805.25,-834 805.25,-834 805.25,-840 799.25,-846 793.25,-846 793.25,-846 496,-846 496,-846 490,-846 484,-840 484,-834 484,-834 484,-760.5 484,-760.5 484,-754.5 490,-748.5 496,-748.5"/>
<text text-anchor="middle" x="644.62" y="-828.7" font-family="Times,serif" font-size="14.00">Rails::Conductor::ActionMailbox::IncineratesController</text>
<polyline fill="none" stroke="black" points="484,-821.5 805.25,-821.5"/>
<text text-anchor="start" x="492" y="-804.2" font-family="Times,serif" font-size="14.00">create</text>
<polyline fill="none" stroke="black" points="484,-797 805.25,-797"/>
<polyline fill="none" stroke="black" points="484,-773 805.25,-773"/>
<text text-anchor="start" x="492" y="-755.7" font-family="Times,serif" font-size="14.00">_layout</text>
</g>
<!-- Rails::Conductor::ActionMailbox::ReroutesController -->
<g id="node26" class="node">
<title>Rails::Conductor::ActionMailbox::ReroutesController</title>
<path fill="none" stroke="black" d="M1332,-836.5C1332,-836.5 1618,-836.5 1618,-836.5 1624,-836.5 1630,-842.5 1630,-848.5 1630,-848.5 1630,-938.5 1630,-938.5 1630,-944.5 1624,-950.5 1618,-950.5 1618,-950.5 1332,-950.5 1332,-950.5 1326,-950.5 1320,-944.5 1320,-938.5 1320,-938.5 1320,-848.5 1320,-848.5 1320,-842.5 1326,-836.5 1332,-836.5"/>
<text text-anchor="middle" x="1475" y="-933.2" font-family="Times,serif" font-size="14.00">Rails::Conductor::ActionMailbox::ReroutesController</text>
<polyline fill="none" stroke="black" points="1320,-926 1630,-926"/>
<text text-anchor="start" x="1328" y="-908.7" font-family="Times,serif" font-size="14.00">create</text>
<polyline fill="none" stroke="black" points="1320,-901.5 1630,-901.5"/>
<polyline fill="none" stroke="black" points="1320,-877.5 1630,-877.5"/>
<text text-anchor="start" x="1328" y="-860.2" font-family="Times,serif" font-size="14.00">_layout</text>
<text text-anchor="start" x="1328" y="-843.7" font-family="Times,serif" font-size="14.00">reroute</text>
</g>
<!-- Rails::Conductor::BaseController -->
<g id="node27" class="node">
<title>Rails::Conductor::BaseController</title>
<path fill="none" stroke="black" d="M1200,-1408.5C1200,-1408.5 1373.5,-1408.5 1373.5,-1408.5 1379.5,-1408.5 1385.5,-1414.5 1385.5,-1420.5 1385.5,-1420.5 1385.5,-1526.5 1385.5,-1526.5 1385.5,-1532.5 1379.5,-1538.5 1373.5,-1538.5 1373.5,-1538.5 1200,-1538.5 1200,-1538.5 1194,-1538.5 1188,-1532.5 1188,-1526.5 1188,-1526.5 1188,-1420.5 1188,-1420.5 1188,-1414.5 1194,-1408.5 1200,-1408.5"/>
<text text-anchor="middle" x="1286.75" y="-1521.2" font-family="Times,serif" font-size="14.00">Rails::Conductor::BaseController</text>
<polyline fill="none" stroke="black" points="1188,-1514 1385.5,-1514"/>
<polyline fill="none" stroke="black" points="1188,-1490 1385.5,-1490"/>
<polyline fill="none" stroke="black" points="1188,-1466 1385.5,-1466"/>
<text text-anchor="start" x="1196" y="-1448.7" font-family="Times,serif" font-size="14.00">_layout</text>
<text text-anchor="start" x="1196" y="-1432.2" font-family="Times,serif" font-size="14.00">_layout_from_proc</text>
<text text-anchor="start" x="1196" y="-1415.7" font-family="Times,serif" font-size="14.00">ensure_development_env</text>
</g>
<!-- Turbo::Native::NavigationController -->
<g id="node28" class="node">
<title>Turbo::Native::NavigationController</title>
<path fill="none" stroke="black" d="M452,-1276.5C452,-1276.5 643.5,-1276.5 643.5,-1276.5 649.5,-1276.5 655.5,-1282.5 655.5,-1288.5 655.5,-1288.5 655.5,-1411.5 655.5,-1411.5 655.5,-1417.5 649.5,-1423.5 643.5,-1423.5 643.5,-1423.5 452,-1423.5 452,-1423.5 446,-1423.5 440,-1417.5 440,-1411.5 440,-1411.5 440,-1288.5 440,-1288.5 440,-1282.5 446,-1276.5 452,-1276.5"/>
<text text-anchor="middle" x="547.75" y="-1406.2" font-family="Times,serif" font-size="14.00">Turbo::Native::NavigationController</text>
<polyline fill="none" stroke="black" points="440,-1399 655.5,-1399"/>
<text text-anchor="start" x="448" y="-1381.7" font-family="Times,serif" font-size="14.00">recede</text>
<text text-anchor="start" x="448" y="-1365.2" font-family="Times,serif" font-size="14.00">refresh</text>
<text text-anchor="start" x="448" y="-1348.7" font-family="Times,serif" font-size="14.00">resume</text>
<polyline fill="none" stroke="black" points="440,-1341.5 655.5,-1341.5"/>
<polyline fill="none" stroke="black" points="440,-1317.5 655.5,-1317.5"/>
<text text-anchor="start" x="448" y="-1300.2" font-family="Times,serif" font-size="14.00">_layout</text>
<text text-anchor="start" x="448" y="-1283.7" font-family="Times,serif" font-size="14.00">_layout_from_proc</text>
</g>
</g>
</svg>
